<svg width="17" height="17" viewBox="0 0 17 17" fill="none" xmlns="http://www.w3.org/2000/svg">
<path d="M8.125 0C6.51803 0 4.94714 0.476523 3.611 1.36931C2.27485 2.2621 1.23344 3.53105 0.618482 5.0157C0.00352044 6.50035 -0.157382 8.13401 0.156123 9.71011C0.469628 11.2862 1.24346 12.7339 2.37976 13.8702C3.51606 15.0065 4.9638 15.7804 6.5399 16.0939C8.11599 16.4074 9.74966 16.2465 11.2343 15.6315C12.719 15.0166 13.9879 13.9752 14.8807 12.639C15.7735 11.3029 16.25 9.73197 16.25 8.125C16.2477 5.97081 15.391 3.90551 13.8677 2.38227C12.3445 0.85903 10.2792 0.00227486 8.125 0ZM8.125 13.125C7.93958 13.125 7.75833 13.07 7.60416 12.967C7.44999 12.864 7.32982 12.7176 7.25887 12.5463C7.18791 12.375 7.16934 12.1865 7.20552 12.0046C7.24169 11.8227 7.33098 11.6557 7.46209 11.5246C7.5932 11.3935 7.76025 11.3042 7.94211 11.268C8.12396 11.2318 8.31246 11.2504 8.48377 11.3214C8.65507 11.3923 8.80149 11.5125 8.90451 11.6667C9.00752 11.8208 9.0625 12.0021 9.0625 12.1875C9.0625 12.4361 8.96373 12.6746 8.78792 12.8504C8.6121 13.0262 8.37364 13.125 8.125 13.125ZM8.75 9.31875V9.375C8.75 9.54076 8.68416 9.69973 8.56695 9.81694C8.44974 9.93415 8.29076 10 8.125 10C7.95924 10 7.80027 9.93415 7.68306 9.81694C7.56585 9.69973 7.5 9.54076 7.5 9.375V8.75C7.5 8.58424 7.56585 8.42527 7.68306 8.30806C7.80027 8.19085 7.95924 8.125 8.125 8.125C9.1586 8.125 10 7.42188 10 6.5625C10 5.70312 9.1586 5 8.125 5C7.09141 5 6.25 5.70312 6.25 6.5625V6.875C6.25 7.04076 6.18416 7.19973 6.06695 7.31694C5.94974 7.43415 5.79076 7.5 5.625 7.5C5.45924 7.5 5.30027 7.43415 5.18306 7.31694C5.06585 7.19973 5 7.04076 5 6.875V6.5625C5 5.01172 6.40157 3.75 8.125 3.75C9.84844 3.75 11.25 5.01172 11.25 6.5625C11.25 7.92031 10.175 9.05703 8.75 9.31875Z" fill="#2A2224"/>
</svg>
