<svg width="16" height="15" viewBox="0 0 16 15" fill="none" xmlns="http://www.w3.org/2000/svg">
<path d="M1.25 0.625V14.375C1.25 14.5408 1.18415 14.6997 1.06694 14.8169C0.949731 14.9342 0.79076 15 0.625 15C0.45924 15 0.300269 14.9342 0.183058 14.8169C0.0658481 14.6997 0 14.5408 0 14.375V0.625C0 0.45924 0.0658481 0.300269 0.183058 0.183058C0.300269 0.0658481 0.45924 0 0.625 0C0.79076 0 0.949731 0.0658481 1.06694 0.183058C1.18415 0.300269 1.25 0.45924 1.25 0.625ZM15 6.875H9.375V1.875C9.3751 1.75132 9.33849 1.63038 9.26983 1.52751C9.20116 1.42464 9.10351 1.34446 8.98924 1.29711C8.87498 1.24977 8.74924 1.23739 8.62793 1.26154C8.50663 1.2857 8.39522 1.34531 8.30781 1.43281L2.68281 7.05781C2.6247 7.11586 2.5786 7.18479 2.54715 7.26066C2.5157 7.33654 2.49951 7.41787 2.49951 7.5C2.49951 7.58213 2.5157 7.66346 2.54715 7.73934C2.5786 7.81521 2.6247 7.88414 2.68281 7.94219L8.30781 13.5672C8.39522 13.6547 8.50663 13.7143 8.62793 13.7385C8.74924 13.7626 8.87498 13.7502 8.98924 13.7029C9.10351 13.6555 9.20116 13.5754 9.26983 13.4725C9.33849 13.3696 9.3751 13.2487 9.375 13.125V8.125H15C15.1658 8.125 15.3247 8.05915 15.4419 7.94194C15.5592 7.82473 15.625 7.66576 15.625 7.5C15.625 7.33424 15.5592 7.17527 15.4419 7.05806C15.3247 6.94085 15.1658 6.875 15 6.875Z" fill="#2A2224"/>
</svg>
