<svg width="107" height="34" viewBox="0 0 107 34" fill="none" xmlns="http://www.w3.org/2000/svg">
<path d="M0.978027 12.7325H2.36677V4.22404H0.978027V1.26074H7.12956L10.0537 10.1409L12.9095 1.26074H19.3348V4.22404H17.9461V12.7325H19.3348V15.6958H12.9877V12.7325H14.3764V8.47828C14.3764 8.06752 13.7896 7.96972 13.6625 8.36092L11.2175 15.7056H8.77257L6.34717 8.45872C6.22003 8.06752 5.63324 8.15554 5.63324 8.57608V12.7325H7.02198V15.6958H0.978027V12.7325Z" stroke="white" stroke-width="1.95597" stroke-miterlimit="10"/>
<path d="M20.8999 12.7325H22.2886V4.22404H20.8999V1.26074H31.9022V6.02353H28.3326V4.4392H25.8681V7.0113H29.203V9.75944H25.8681V12.5076H28.3326V10.9232H31.9022V15.686H20.8999V12.7227V12.7325Z" stroke="white" stroke-width="1.95597" stroke-miterlimit="10"/>
<path d="M35.7908 12.7325H37.1795V4.4392H35.7321V6.23869H32.9155V1.26074H45.0132V6.23869H42.1966V4.4392H40.7492V12.7325H42.1379V15.6958H35.7908V12.7325Z" stroke="white" stroke-width="1.95597" stroke-miterlimit="10"/>
<path d="M45.9312 12.7325H47.3199V4.22404H45.9312V1.26074H57.0117V5.98441H53.4421V4.44898H50.8895V7.12866H54.2245V9.8768H50.8895V12.7325H52.2783V15.6958H45.9312V12.7325Z" stroke="white" stroke-width="1.95597" stroke-miterlimit="10"/>
<path d="M65.3366 0.977539C69.5615 0.977539 72.8965 4.31247 72.8965 8.53737C72.8965 12.7623 69.454 15.9896 65.3366 15.9896C61.2193 15.9896 57.8062 12.6351 57.8062 8.49825C57.8062 4.36137 61.2095 0.98732 65.3366 0.98732V0.977539ZM65.366 12.4102C67.4882 12.4102 69.2877 10.6303 69.2877 8.48847C69.2877 6.34668 67.5567 4.54719 65.3464 4.54719C63.1362 4.54719 61.4247 6.29778 61.4247 8.46891C61.4247 10.64 63.2046 12.4102 65.366 12.4102Z" stroke="white" stroke-width="1.95597" stroke-miterlimit="10"/>
<path d="M74.2534 12.7325H75.6422V4.22404H74.2534V1.26074H81.0504C82.7423 1.26074 83.9746 1.69106 84.9037 2.64948C85.8817 3.62747 86.3511 4.81083 86.3511 6.28759C86.3511 8.51739 85.158 10.2484 83.3389 10.6201L85.1188 12.7423H86.5663V15.7056H82.8206L79.202 10.4049V12.7423H80.1116V15.7056H74.2437V12.7423L74.2534 12.7325ZM80.3365 8.62498C81.8328 8.62498 82.7423 7.80346 82.7423 6.48318C82.7423 5.1629 82.5272 5.33894 82.1556 4.94775C81.8133 4.57611 81.4221 4.44898 80.7473 4.44898H79.2118V8.62498H80.3365Z" stroke="white" stroke-width="1.95597" stroke-miterlimit="10"/>
<path d="M88.0112 12.7325H89.4V4.22404H88.0112V1.26074H95.3461C97.4879 1.26074 99.1309 1.99423 100.412 3.49055C101.498 4.79127 102.075 6.54186 102.075 8.44894C102.075 12.6934 99.2581 15.7056 95.2972 15.7056H88.0015V12.7423L88.0112 12.7325ZM94.9647 12.5174C96.2459 12.5174 97.1065 12.1457 97.6933 11.3047C98.1921 10.6103 98.4757 9.52472 98.4757 8.4685C98.4757 7.41227 98.1041 6.13111 97.527 5.43674C96.9403 4.74237 96.1383 4.4392 94.9745 4.4392H92.9794V12.5174H94.9745H94.9647Z" stroke="white" stroke-width="1.95597" stroke-miterlimit="10"/>
<path d="M0.978027 12.7325H2.36677V4.22404H0.978027V1.26074H7.12956L10.0537 10.1409L12.9095 1.26074H19.3348V4.22404H17.9461V12.7325H19.3348V15.6958H12.9877V12.7325H14.3764V6.21913L11.2175 15.7056H8.77257L5.63324 6.32671V12.7325H7.02198V15.6958H0.978027V12.7325Z" fill="#8D182B"/>
<path d="M20.8999 12.7325H22.2886V4.22404H20.8999V1.26074H31.9022V6.02353H28.3326V4.4392H25.8681V7.0113H29.203V9.75944H25.8681V12.5076H28.3326V10.9232H31.9022V15.686H20.8999V12.7227V12.7325Z" fill="#8D182B"/>
<path d="M35.7908 12.7325H37.1795V4.4392H35.7321V6.23869H32.9155V1.26074H45.0132V6.23869H42.1966V4.4392H40.7492V12.7325H42.1379V15.6958H35.7908V12.7325Z" fill="#8D182B"/>
<path d="M45.9312 12.7325H47.3199V4.22404H45.9312V1.26074H57.0117V5.98441H53.4421V4.44898H50.8895V7.13844H54.2245V9.88658H50.8895V12.7423H52.2783V15.7056H45.9312V12.7423V12.7325Z" fill="#8D182B"/>
<path d="M65.3366 0.977539C69.5615 0.977539 72.8965 4.31247 72.8965 8.53737C72.8965 12.7623 69.454 15.9896 65.3366 15.9896C61.2193 15.9896 57.8062 12.6351 57.8062 8.49825C57.8062 4.36137 61.2095 0.98732 65.3366 0.98732V0.977539ZM65.366 12.4102C67.4882 12.4102 69.2877 10.6303 69.2877 8.48847C69.2877 6.34668 67.5567 4.54719 65.3464 4.54719C63.1362 4.54719 61.4247 6.29778 61.4247 8.46891C61.4247 10.64 63.2046 12.4102 65.366 12.4102Z" fill="#8D182B"/>
<path d="M74.2534 12.7325H75.6422V4.22404H74.2534V1.26074H81.0504C82.7423 1.26074 83.9746 1.69106 84.9037 2.64948C85.8817 3.62747 86.3511 4.81083 86.3511 6.28759C86.3511 8.51739 85.158 10.2484 83.3389 10.6201L85.1188 12.7423H86.5663V15.7056H82.8206L79.202 10.4049V12.7423H80.1116V15.7056H74.2437V12.7423L74.2534 12.7325ZM80.3365 8.62498C81.8328 8.62498 82.7423 7.80346 82.7423 6.48318C82.7423 5.1629 82.5272 5.33894 82.1556 4.94775C81.8133 4.57611 81.4221 4.44898 80.7473 4.44898H79.2118V8.62498H80.3365Z" fill="#8D182B"/>
<path d="M88.0112 12.7325H89.4V4.22404H88.0112V1.26074H95.3461C97.4879 1.26074 99.1309 1.99423 100.412 3.49055C101.498 4.79127 102.075 6.54186 102.075 8.44894C102.075 12.6934 99.2581 15.7056 95.2972 15.7056H88.0015V12.7423L88.0112 12.7325ZM94.9647 12.5174C96.2459 12.5174 97.1065 12.1457 97.6933 11.3047C98.1921 10.6103 98.4757 9.52472 98.4757 8.4685C98.4757 7.41227 98.1041 6.13111 97.527 5.43674C96.9403 4.74237 96.1383 4.4392 94.9745 4.4392H92.9794V12.5174H94.9745H94.9647Z" fill="#8D182B"/>
<path d="M85.476 26.4161H0.978027V17.624H85.476V26.4161Z" fill="#FDAB1C"/>
<path d="M9.51194 19.5847V18.6548H13.8931V19.5847H12.2599V23.9893H11.1451V19.5847H9.51194Z" fill="#8D182B"/>
<path d="M23.6242 18.6548V23.9893H22.4964V18.6548H23.6242Z" fill="#8D182B"/>
<path d="M37.2914 20.3791C37.2549 20.2524 37.2037 20.1404 37.1377 20.0431C37.0717 19.9441 36.991 19.8608 36.8955 19.7931C36.8017 19.7236 36.694 19.6706 36.5725 19.6342C36.4527 19.5977 36.3198 19.5795 36.174 19.5795C35.9013 19.5795 35.6617 19.6472 35.455 19.7826C35.2501 19.9181 35.0904 20.1152 34.9758 20.3739C34.8612 20.6309 34.8039 20.9452 34.8039 21.3168C34.8039 21.6884 34.8603 22.0045 34.9732 22.2649C35.086 22.5254 35.2458 22.7242 35.4524 22.8614C35.6591 22.9969 35.9031 23.0646 36.1844 23.0646C36.4396 23.0646 36.6576 23.0194 36.8382 22.9291C37.0205 22.8371 37.1594 22.7077 37.2549 22.541C37.3522 22.3743 37.4008 22.1772 37.4008 21.9498L37.63 21.9836H36.2547V21.1345H38.4869V21.8065C38.4869 22.2754 38.388 22.6782 38.19 23.0151C37.992 23.3502 37.7194 23.609 37.3721 23.7913C37.0248 23.9719 36.6272 24.0622 36.1792 24.0622C35.6791 24.0622 35.2397 23.9519 34.8612 23.7314C34.4826 23.5091 34.1874 23.194 33.9756 22.7859C33.7655 22.3761 33.6604 21.8899 33.6604 21.3272C33.6604 20.8949 33.7229 20.5094 33.8479 20.1707C33.9747 19.8304 34.1518 19.5421 34.3793 19.306C34.6068 19.0698 34.8716 18.8901 35.1737 18.7668C35.4759 18.6435 35.8032 18.5819 36.1557 18.5819C36.4579 18.5819 36.7392 18.6261 36.9996 18.7147C37.2601 18.8015 37.4911 18.9248 37.6925 19.0846C37.8957 19.2443 38.0615 19.4345 38.19 19.655C38.3185 19.8738 38.401 20.1152 38.4375 20.3791H37.2914Z" fill="#8D182B"/>
<path d="M47.887 23.9893V18.6548H51.4815V19.5847H49.0148V20.8558H51.2966V21.7857H49.0148V23.0594H51.4919V23.9893H47.887Z" fill="#8D182B"/>
<path d="M60.6604 23.9893V18.6548H62.765C63.1679 18.6548 63.5117 18.7269 63.7965 18.871C64.083 19.0134 64.3009 19.2157 64.4503 19.4779C64.6014 19.7384 64.6769 20.0448 64.6769 20.3973C64.6769 20.7516 64.6005 21.0563 64.4477 21.3116C64.2949 21.5651 64.0735 21.7596 63.7835 21.8951C63.4952 22.0305 63.1462 22.0982 62.7364 22.0982H61.3272V21.1918H62.554C62.7694 21.1918 62.9482 21.1623 63.0906 21.1032C63.233 21.0442 63.3389 20.9556 63.4084 20.8375C63.4796 20.7195 63.5152 20.5727 63.5152 20.3973C63.5152 20.2202 63.4796 20.0709 63.4084 19.9493C63.3389 19.8278 63.2321 19.7358 63.088 19.6732C62.9456 19.609 62.7659 19.5769 62.5488 19.5769H61.7883V23.9893H60.6604ZM63.5412 21.5617L64.867 23.9893H63.622L62.3248 21.5617H63.5412Z" fill="#8D182B"/>
<path d="M76.7886 20.189C76.7678 19.9789 76.6784 19.8156 76.5204 19.6993C76.3623 19.5829 76.1479 19.5248 75.877 19.5248C75.6929 19.5248 75.5375 19.5508 75.4107 19.6029C75.284 19.6533 75.1867 19.7236 75.119 19.8139C75.053 19.9042 75.02 20.0066 75.02 20.1212C75.0166 20.2168 75.0365 20.3001 75.0799 20.3713C75.1251 20.4425 75.1867 20.5041 75.2649 20.5562C75.343 20.6066 75.4333 20.6509 75.5358 20.6891C75.6382 20.7255 75.7476 20.7568 75.864 20.7828L76.3432 20.8975C76.5759 20.9495 76.7895 21.019 76.984 21.1058C77.1785 21.1927 77.3469 21.2995 77.4893 21.4262C77.6317 21.553 77.742 21.7023 77.8201 21.8742C77.9 22.0461 77.9408 22.2432 77.9425 22.4655C77.9408 22.792 77.8574 23.075 77.6925 23.3146C77.5292 23.5525 77.2931 23.7375 76.984 23.8694C76.6766 23.9997 76.3059 24.0648 75.8718 24.0648C75.4411 24.0648 75.066 23.9988 74.7465 23.8668C74.4288 23.7349 74.1804 23.5395 74.0016 23.2808C73.8245 23.0203 73.7316 22.6982 73.7229 22.3144H74.8143C74.8264 22.4933 74.8776 22.6426 74.9679 22.7624C75.06 22.8805 75.1824 22.9699 75.3352 23.0307C75.4897 23.0898 75.6643 23.1193 75.8588 23.1193C76.0498 23.1193 76.2156 23.0915 76.3563 23.0359C76.4986 22.9804 76.6089 22.9031 76.6871 22.8041C76.7652 22.7051 76.8043 22.5914 76.8043 22.4629C76.8043 22.3431 76.7687 22.2424 76.6975 22.1607C76.628 22.0791 76.5256 22.0097 76.3901 21.9524C76.2564 21.8951 76.0923 21.843 75.8978 21.7961L75.317 21.6502C74.8672 21.5408 74.5121 21.3698 74.2516 21.1371C73.9912 20.9044 73.8618 20.591 73.8635 20.1968C73.8618 19.8738 73.9478 19.5916 74.1214 19.3503C74.2968 19.1089 74.5373 18.9205 74.8429 18.785C75.1485 18.6496 75.4958 18.5819 75.8848 18.5819C76.2807 18.5819 76.6263 18.6496 76.9215 18.785C77.2184 18.9205 77.4494 19.1089 77.6143 19.3503C77.7793 19.5916 77.8644 19.8712 77.8696 20.189H76.7886Z" fill="#8D182B"/>
<path d="M94.6117 29.7546C99.3972 29.7546 103.277 25.897 103.277 21.1385C103.277 16.38 99.3972 12.5225 94.6117 12.5225C89.8262 12.5225 85.9468 16.38 85.9468 21.1385C85.9468 25.897 89.8262 29.7546 94.6117 29.7546Z" fill="white"/>
<path d="M103.315 17.9898L103.217 16.5032L101.134 16.2881V18.3027L103.315 17.9898Z" fill="white"/>
<path d="M105.352 21.0605C105.166 21.0311 105.019 21.0018 104.775 20.9529C104.931 21.3147 105.058 21.6179 105.176 21.8917C105.655 21.8037 106.124 21.7157 106.604 21.6375C105.968 22.0384 104.912 21.8331 104.99 23.0262H106.848C106.848 23.036 106.858 23.0458 106.868 23.0555C106.408 23.124 105.958 23.212 105.499 23.2414C105 23.2805 104.785 23.5152 104.834 24.0335C105.528 24.0726 106.213 24.1118 106.897 24.1509C106.897 24.1998 106.897 24.2585 106.897 24.3074H104.785C104.569 25.432 104.12 26.41 103.386 27.212C103.044 27.5836 102.594 27.877 102.154 28.1215C101.44 28.5127 100.706 28.8648 100.257 29.5787C100.129 29.7743 100.041 30.0188 100.002 30.2535C99.9045 30.7816 99.9534 31.3586 99.7578 31.8379C99.5622 32.3073 99.1515 32.7083 98.77 33.0701C98.5451 33.2853 98.2126 33.1581 97.8996 33.1386C96.5011 33.0701 95.0439 32.6007 93.6552 33.4613C93.3716 32.7767 93.1075 32.141 92.8337 31.476C92.5794 31.6129 92.3153 31.7401 92.0415 31.8868C92.0904 31.4369 92.1784 31.0359 92.1686 30.6252C92.1686 29.9601 91.8263 29.5787 91.1417 29.344C90.2127 29.0213 89.3129 29.2169 88.2665 29.5005C88.4034 29.0702 88.5012 28.7376 88.6185 28.3758C87.2298 28.679 86.0171 28.3758 84.9902 27.3C84.599 26.8892 84.0416 26.6448 83.5428 26.322C83.7971 26.0677 84.1198 25.7548 84.4719 25.4027C83.7971 25.0898 83.1516 24.7964 82.3594 24.4247C82.8778 24.2487 83.2494 24.1215 83.7188 23.9553C83.1223 23.8477 82.6137 23.7597 81.978 23.6521C82.2519 22.7719 82.5159 21.8917 82.78 21.0311C82.6431 21.0996 82.4866 21.1778 82.3301 21.2658C82.203 20.2194 82.9071 18.7133 84.3936 16.8649C83.9829 16.6791 83.5917 16.4933 83.044 16.2488C83.8558 15.5446 84.6088 14.8991 85.3619 14.2439C84.5306 13.4224 84.0905 12.2879 83.8264 11.085C83.6015 10.019 84.4132 9.04101 85.5086 8.98233C86.5452 8.93343 87.4939 9.26594 88.4229 9.65714C88.9804 9.89186 89.489 10.2537 90.0464 10.508C90.2811 10.6156 90.5941 10.6351 90.8386 10.5862C92.4718 10.2342 94.0855 10.1559 95.7285 10.6058V10.2928C97.4302 10.3417 98.8092 11.1143 100.051 12.0434C100.53 11.6033 101.01 11.2219 101.42 10.772C101.958 10.1853 102.819 10.2928 103.279 11.0752C103.738 11.838 103.875 12.6889 103.924 13.5495C103.963 14.195 103.856 14.8502 103.846 15.5055C103.846 15.6913 103.953 15.8771 104.032 16.0532C104.237 16.5226 104.462 16.9823 104.706 17.5201H104.159C104.648 18.6742 105.401 19.7206 105.371 21.0605H105.352ZM98.017 13.3735L98.4082 13.6864L99.572 13.0605C98.9363 12.7378 98.4473 12.4835 97.9387 12.239L97.6845 12.4835L97.0879 12.239C95.5818 11.6033 94.0464 11.6131 92.3838 11.9652C92.6674 12.1901 92.8728 12.3564 93.1368 12.5618L91.5329 13.0899L90.9951 12.7671C89.8019 12.063 88.5892 11.3784 87.3472 10.7525C86.9266 10.5373 86.3985 10.4493 85.9193 10.4689C85.6553 10.4786 85.2738 10.7818 85.176 11.0361C84.9413 11.5936 85.5086 12.7671 86.0562 13.0801C86.0562 13.0801 85.8411 11.9358 86.3301 11.5544C86.467 11.4566 86.6528 11.5642 86.6235 11.7305C86.5941 11.8967 86.4572 12.464 86.5452 12.7476C86.5452 12.7476 87.044 11.8967 87.9437 12.1999C88.8435 12.5031 88.11 12.3466 88.0709 12.4542L87.7873 13.0996L88.11 13.0605C88.198 13.0508 88.2469 13.1681 88.1687 13.217C88.0024 13.3344 87.8068 13.5104 87.6308 13.7842C88.9804 13.6962 90.2713 13.4126 91.5623 14.2537C90.1638 14.6351 88.9217 15.0556 87.9829 16.1803H89.4303C88.8239 16.8845 88.2371 17.4419 87.8068 18.1167C87.2885 18.9187 86.8582 19.7891 86.4963 20.679C86.2616 21.2561 86.5648 21.8037 87.132 22.1069C87.4058 22.2536 87.709 22.3514 88.0122 22.4101C88.9315 22.5763 89.8606 22.6643 90.7603 22.8795C91.9437 23.1631 93.1075 23.4565 94.33 23.3978C94.4376 23.3978 94.5549 23.4174 94.6429 23.4761C95.1124 23.7988 95.572 24.1411 96.1099 24.5323C93.7236 23.5445 91.3373 23.0555 88.8239 23.3587C89.4987 23.4174 90.1735 23.4761 90.8484 23.5054C91.8557 23.5543 92.1393 23.7988 92.3349 24.8648C92.0415 24.6986 91.7774 24.5127 91.484 24.3856C91.1906 24.2487 90.8777 24.1704 90.5745 24.0629L90.4963 24.19C91.7383 25.0898 92.4914 26.322 92.9412 27.9064C93.0782 27.3782 93.1173 26.9968 93.264 26.6741C93.5769 25.9699 93.8214 25.3147 93.2835 24.5812C93.0879 24.3171 93.4596 23.8966 93.7921 23.9749C94.7896 24.1998 95.797 24.366 96.1979 25.5592C96.374 26.0677 96.9119 26.234 97.44 26.0971C98.2517 25.8819 99.0634 25.6472 99.9241 25.4125C99.7969 25.3147 99.6404 25.1875 99.4742 25.0898C99.2101 24.9333 98.8972 24.8355 98.6625 24.6497C97.8996 24.0629 97.9192 23.7793 98.6136 23.2805C98.7994 23.4174 98.9559 23.6423 99.1417 23.6619C100.002 23.7695 100.873 23.8282 101.743 23.8868C102.017 23.9064 102.183 23.7304 102.125 23.4272C101.958 22.6057 101.831 21.7744 101.616 20.9724C101.489 20.4737 101.078 19.7597 100.423 19.6033C101.274 18.9382 100.961 19.2512 101.792 18.3319C102.31 17.7646 102.633 17.9407 102.76 17.4615C102.887 16.9823 102.985 17.794 103.034 17.8429C103.083 17.8918 103.151 17.9211 103.298 18.0189C102.926 16.5911 102.34 15.4175 101.264 14.5275C100.452 13.8527 99.1906 13.9016 98.4962 14.6742C99.4644 14.5666 100.521 14.1657 101.147 15.4957C100.247 15.173 99.5524 15.4175 98.9167 15.9651C98.0072 14.8209 96.7554 14.9383 95.5133 14.9285C96.2077 13.9505 97.1466 14.0972 98.1246 14.2243C97.6454 13.9603 97.1564 13.7256 96.638 13.6082C95.3373 13.3246 94.105 13.6082 92.8337 14.3319C92.9412 14.0874 92.9804 13.9701 93.0488 13.8723C94.017 12.4737 96.55 12.151 97.841 13.2463M86.1638 16.3172C85.0196 17.2072 84.1981 18.195 83.7971 19.5641C84.1785 19.4077 84.4914 19.2805 84.7946 19.1632C84.3937 20.3367 84.0122 21.4614 83.6308 22.5959C84.7359 22.9186 85.4792 23.4761 86.0562 24.3171C85.6552 24.3563 85.3325 24.3954 85 24.4247C85 24.4638 85 24.503 84.9902 24.5421C85.5966 24.8746 86.2029 25.1973 86.9169 25.5885C86.4376 25.7254 86.1149 25.8232 85.7628 25.921C87.1711 27.0164 88.8044 27.1533 90.4767 27.2022C90.3789 27.4174 90.3105 27.5641 90.3007 27.5738C91.0244 27.8672 91.6992 28.1508 92.3251 28.4051C91.9241 26.8403 89.841 24.8746 88.1393 24.6203C88.3741 24.8355 88.5501 24.9822 88.7163 25.1387C88.8728 25.2951 89.0097 25.4614 89.1564 25.6179C87.3374 25.0506 86.0758 23.9162 85.4205 22.1656C85.2738 21.7939 85.2543 21.3343 85.3032 20.9333C85.4499 19.6228 86.2225 18.6448 87.0929 17.7451C87.308 17.5201 87.5819 17.3539 87.8264 17.1681C87.7775 17.1192 87.7286 17.0703 87.6797 17.0214C87.1711 17.1289 86.6528 17.2463 85.9878 17.3832C87.0049 15.7891 88.2665 14.7818 90.0757 14.2635C88.3349 14.1559 85.7042 15.1045 85.2543 15.926C85.5281 16.0434 85.8117 16.1607 86.1736 16.3172H86.1638ZM93.7823 27.4565C93.4205 28.6496 93.4302 29.8134 93.9877 30.9674C94.1148 30.8696 94.2028 30.8012 94.2713 30.7327C94.3887 31.0457 94.4962 31.3391 94.6234 31.6814C95.6405 31.1337 96.6478 31.3 97.6649 31.476C97.9485 31.5249 98.281 31.4271 98.5451 31.3C98.9852 31.0848 99.4351 30.723 99.2395 30.2046C99.1417 29.9406 98.6331 29.7547 98.281 29.6765C97.0586 29.4027 95.8948 29.6569 94.7799 30.2242C94.105 29.4027 93.9681 28.4345 93.7823 27.4467V27.4565ZM101.283 13.0801C101.743 13.4126 102.154 13.7158 102.662 14.0972C102.711 13.4322 102.76 12.8649 102.78 12.2879C102.78 12.2781 102.78 12.2684 102.78 12.2586C102.76 12.0336 102.496 11.9163 102.301 12.0239C102.105 12.1314 102.242 12.063 102.213 12.0825C101.89 12.3955 101.596 12.7378 101.283 13.0899V13.0801ZM99.2982 28.0042C99.0634 28.6594 98.6625 28.7865 98.2224 28.7474C97.7823 28.7083 97.5965 28.454 97.5476 28.1117C96.8532 28.5616 96.1686 29.0115 95.484 29.4613C96.5402 29.0213 97.6454 28.9919 98.77 29.2951C98.8874 29.3244 99.1221 29.2169 99.1612 29.1191M100.599 25.6374C100.922 25.8526 101.235 26.058 101.557 26.2731C102.398 25.7939 102.349 24.9333 102.516 24.2193C101.9 24.679 101.254 25.1484 100.609 25.6374H100.599ZM103.093 18.8404C102.907 19.6033 102.848 20.3856 101.929 20.4345C102.066 20.7084 102.173 20.9333 102.31 21.2169C102.565 21.0409 102.819 20.9138 102.995 20.7182C103.171 20.5226 103.396 20.2683 103.406 20.0433C103.406 19.7108 103.239 19.3783 103.093 18.8404ZM97.0977 26.7034C96.6087 26.6839 96.136 26.3709 95.6796 25.7646L97.0977 26.7034ZM100.501 27.6325C100.726 27.3098 100.951 26.9968 101.225 26.5959C100.863 26.4981 100.667 26.4394 100.442 26.3807M102.77 18.9969C102.31 19.2805 101.968 19.5055 101.567 19.7597C102.418 19.9847 102.614 19.8771 102.77 18.9969Z" fill="black"/>
<path d="M86.1692 16.317C85.8074 16.1605 85.5238 16.0431 85.2499 15.9258C85.6998 15.114 88.3208 14.1556 90.0714 14.2632C88.2621 14.7815 87.0005 15.7888 85.9834 17.383C86.6484 17.2363 87.157 17.1287 87.6753 17.0211C87.7242 17.07 87.7731 17.1189 87.822 17.1678C87.5775 17.3634 87.3037 17.5297 87.0885 17.7448C86.2083 18.6543 85.4357 19.6323 85.2988 20.933C85.2499 21.334 85.2793 21.7937 85.4162 22.1653C86.0812 23.9061 87.3428 25.0504 89.1521 25.6176C89.0054 25.4611 88.8685 25.2851 88.712 25.1384C88.5457 24.9819 88.3697 24.8352 88.135 24.6201C89.8367 24.8743 91.9296 26.8401 92.3208 28.4049C91.7046 28.1506 91.02 27.867 90.2963 27.5736C90.2963 27.5736 90.3746 27.4073 90.4724 27.2019C88.8098 27.1433 87.1766 27.0161 85.7585 25.9208C86.1105 25.8132 86.4333 25.7252 86.9125 25.5883C86.1986 25.1971 85.5922 24.8645 84.9859 24.5418C84.9859 24.5027 84.9859 24.4636 84.9956 24.4245C85.3282 24.3951 85.6607 24.356 86.0519 24.3169C85.4846 23.4758 84.7316 22.9281 83.6265 22.5956C84.0079 21.4612 84.3893 20.3365 84.7903 19.1629C84.4871 19.2803 84.1741 19.4074 83.7927 19.5639C84.1937 18.1947 85.0152 17.2069 86.1594 16.317H86.1692Z" fill="white"/>
<path d="M93.7836 27.4561C93.9694 28.434 94.1063 29.412 94.7811 30.2335C95.896 29.6663 97.0598 29.412 98.2823 29.6859C98.6344 29.7641 99.1429 29.9499 99.2407 30.214C99.4363 30.7323 98.9865 31.0942 98.5464 31.3093C98.2823 31.4365 97.94 31.5343 97.6662 31.4854C96.6491 31.3093 95.6417 31.1431 94.6246 31.6907C94.4975 31.3484 94.3899 31.055 94.2726 30.7421C94.1943 30.8008 94.1063 30.8692 93.989 30.9768C93.4315 29.8228 93.4119 28.659 93.7836 27.4658V27.4561Z" fill="white"/>
<path d="M101.291 13.08C101.603 12.7377 101.897 12.3856 102.22 12.0727C102.239 12.0531 102.269 12.0336 102.308 12.014C102.513 11.9064 102.767 12.0238 102.787 12.2487C102.806 12.4737 102.787 12.2683 102.787 12.2781C102.767 12.8551 102.718 13.4223 102.669 14.0873C102.151 13.7059 101.74 13.4125 101.291 13.0702V13.08Z" fill="#FDAB1C"/>
<path d="M99.1631 29.1178C99.1239 29.2156 98.8794 29.3232 98.7719 29.2939C97.6472 28.9907 96.5421 29.02 95.4858 29.4601C96.1704 29.0103 96.8452 28.5702 97.5494 28.1105C97.5689 28.2279 97.5983 28.4235 97.6276 28.6288C98.3024 28.8049 98.9577 28.9418 99.3 28.0029" fill="white"/>
<path d="M100.597 25.6378C101.252 25.1488 101.888 24.6794 102.504 24.2197C102.348 24.9337 102.397 25.7943 101.546 26.2735C101.223 26.0583 100.91 25.853 100.587 25.6378H100.597Z" fill="white"/>
<path d="M103.095 18.8408C103.251 19.3787 103.418 19.7112 103.408 20.0437C103.408 20.2785 103.183 20.5327 102.997 20.7186C102.821 20.9044 102.567 21.0315 102.313 21.2173C102.176 20.9337 102.068 20.7088 101.931 20.4349C102.841 20.3763 102.909 19.6036 103.095 18.8408Z" fill="white"/>
<path d="M95.6812 25.7646C96.1375 26.3775 96.6102 26.6905 97.0992 26.7035C96.9623 27.1143 96.8352 27.525 96.6983 27.9358" fill="white"/>
<path d="M100.447 26.3701C100.662 26.4288 100.867 26.4875 101.229 26.5853C100.946 26.9862 100.721 27.309 100.505 27.6219" fill="white"/>
<path d="M102.775 18.9971C102.608 19.8675 102.423 19.9848 101.572 19.7599C101.983 19.5056 102.325 19.2905 102.775 18.9971Z" fill="white"/>
<path d="M95.6221 23.6324C93.7444 22.6349 91.7688 21.9699 89.627 21.8427C89.9107 21.8427 90.1943 21.8427 90.4779 21.8427C90.7713 21.8427 91.0647 21.8623 91.3483 21.9014C91.6515 21.9405 91.9546 21.9992 92.3165 21.9405C91.9644 21.7645 91.6221 21.52 91.2505 21.4418C90.2138 21.2168 89.1674 21.0701 88.1307 20.8843C87.4657 20.7669 87.3581 20.6105 87.6124 20.0041C88.1992 18.6252 89.0011 17.4027 90.2823 16.5029C90.1943 16.6594 90.0965 16.8061 90.028 16.9724C89.7346 17.6765 89.4217 18.3709 89.1869 19.0946C89.05 19.5053 89.2456 19.8085 89.7151 19.9552C90.5366 20.2095 91.3581 20.4736 92.1307 20.8354C93.2651 21.3831 94.3409 22.0188 95.446 22.6251C95.583 22.6936 95.671 22.8305 95.7688 22.9772C93.7444 21.6471 91.6319 20.5909 89.1576 20.4736C89.5977 20.5811 90.028 20.6789 90.4681 20.7963C90.9278 20.9234 91.3776 21.0603 91.8177 21.2364C92.0622 21.3342 92.3556 21.4711 92.4828 21.6765C92.7664 22.1655 93.2358 22.3024 93.7052 22.498C94.38 22.7718 95.0255 23.1337 95.6905 23.4564C95.671 23.5151 95.6417 23.564 95.6221 23.6227V23.6324Z" fill="black"/>
<path d="M98.4553 19.564C98.0739 19.6422 97.6925 19.7205 97.2915 19.7987C97.2329 20.2193 97.1742 20.63 97.1253 21.0408C96.8417 20.5127 96.8025 19.7596 96.0299 19.7987C95.4627 19.8281 94.915 20.0921 94.3771 20.2388C94.4358 20.1215 94.5434 19.9259 94.6314 19.7498C94.162 19.1728 93.7023 18.6154 93.2525 18.0481C93.184 18.0872 93.1058 18.1166 93.0373 18.1557C93.0764 18.5958 93.1058 19.0359 93.1449 19.4956C92.5679 19.1239 92.3723 18.586 92.3527 17.9014C92.03 17.8525 91.717 17.8134 91.228 17.745C91.7561 17.2951 92.1865 16.9234 92.6657 16.5127C93.0666 17.2853 93.7708 17.4613 94.4652 17.6276C95.2475 17.8134 95.9126 18.1655 96.5287 18.7132C96.871 19.0163 97.3991 19.1337 97.8588 19.3097C98.0544 19.388 98.2695 19.3977 98.4749 19.4369C98.4749 19.4858 98.4749 19.5249 98.4749 19.5738L98.4553 19.564ZM95.9908 19.2217C95.4138 18.9479 94.827 18.6838 94.2011 18.3904C94.3478 19.2608 94.6999 19.4271 95.9908 19.2217Z" fill="black"/>
<path d="M94.6193 21.2765C95.9592 20.6604 97.0154 22.499 97.0154 22.499L97.1034 22.6066C97.1034 22.6066 96.722 21.257 96.4482 20.7191C96.3504 20.5332 95.9201 20.3474 95.7342 20.4159C95.3039 20.5724 94.9225 20.8462 94.5215 21.0907C94.1206 21.3352 94.3553 21.2081 94.277 21.2765L94.1499 21.4037C94.3162 21.3939 94.4726 21.3548 94.6193 21.2863V21.2765Z" fill="black"/>
<path d="M98.43 18.0088C98.5865 17.4416 98.5865 16.933 97.8921 16.7374C98.3615 16.4245 98.7821 16.4734 99.007 16.8352C99.2613 17.246 99.0363 17.735 98.43 18.0088Z" fill="black"/>
<path d="M100.301 16.7171C100.174 17.2354 100.077 17.6657 99.9788 18.0569C99.5973 17.7928 99.4604 17.3723 99.6951 16.9518C99.8614 16.6486 100.086 16.5312 100.311 16.7171H100.301Z" fill="black"/>
<path d="M90.5674 18.5479C90.8315 19.0662 91.0271 19.4672 91.2325 19.8681C91.2129 19.9073 91.2031 19.9464 91.1836 19.9757C90.8706 19.8095 90.4403 19.7117 90.2838 19.4574C90.1762 19.2911 90.4501 18.8804 90.5674 18.5479Z" fill="black"/>
<path d="M95.9943 19.2209C94.7034 19.4263 94.3513 19.2503 94.2046 18.3896C94.8305 18.683 95.4173 18.9569 95.9943 19.2209Z" fill="white"/>
<path d="M89.9943 13.6764C89.9943 13.6764 91.031 13.8329 91.5688 14.2339C91.5688 14.2339 88.9772 14.7816 87.9894 16.1605H89.4368C89.4368 16.1605 88.0579 17.6275 87.6276 18.3903C87.6276 18.3903 88.3219 17.2363 90.2975 16.5028C90.2975 16.5028 89.7889 17.2657 89.2021 19.0945C89.2021 19.0945 88.9381 19.7106 89.7302 19.9551C89.7302 19.9551 91.3732 20.4539 92.1459 20.8353L92.4979 20.9527C92.6642 21.0016 92.8402 21.0016 93.0065 20.9527L92.5957 20.3952H93.0065C93.0065 20.3952 92.0481 19.603 91.608 17.8035L91.2363 17.7546C91.2363 17.7546 91.3439 15.6715 93.0065 15.4955C93.0065 15.4955 93.3586 17.0994 97.4759 18.0187C97.4759 18.0187 97.8866 18.6446 97.5932 19.2216C97.5932 19.2216 98.1605 19.4466 98.4636 19.4368V19.5737L97.3096 19.8084L97.1434 21.0505L97.0358 20.8157C97.0358 20.8157 96.2143 19.828 95.3243 20.6104C95.3243 20.6104 96.0382 20.1996 96.449 20.7277C96.449 20.7277 96.7717 21.4221 97.1042 22.6152L98.2094 24.2094C98.2094 24.2094 97.8084 23.8182 98.6201 23.2705C98.6201 23.2705 98.7277 23.3683 98.8059 23.4367C98.8842 23.5052 99.0407 23.6715 99.1971 23.6617C99.1971 23.6617 100.997 23.8671 101.75 23.8768C101.75 23.8768 102.229 23.9257 102.131 23.4172C102.131 23.4172 101.75 21.4514 101.662 21.0798C101.662 21.0798 101.31 19.74 100.429 19.5835C100.429 19.5835 100.781 19.3096 100.869 19.2412C100.869 19.2412 100.517 19.1825 100.42 18.5859C100.42 18.5859 101.935 18.3414 102.268 16.6397C102.268 16.6397 103.06 17.207 103.305 17.9894C103.305 17.9894 102.962 15.9454 101.27 14.498C101.27 14.498 100.801 14.0187 99.9013 14.0285C99.0015 14.0383 98.5028 14.6544 98.5028 14.6544C98.5028 14.6544 99.2754 14.5273 99.7644 14.5175C100.253 14.5077 100.664 14.8109 100.664 14.8109C100.664 14.8109 100.967 15.0652 101.163 15.4759C101.163 15.4759 100.048 14.9185 98.9331 15.9454C98.9331 15.9454 98.3756 15.2608 97.7791 15.1141C97.7791 15.1141 97.6519 15.0652 97.4563 15.0261C97.2607 14.987 96.9673 14.9283 96.6152 14.9185C96.2632 14.9087 95.5297 14.9087 95.5297 14.9087C95.5297 14.9087 96.0089 13.9894 98.1409 14.2046C98.1409 14.2046 95.8622 12.5224 92.8598 14.3219C92.8598 14.3219 94.6397 10.9479 98.4245 13.6862L99.5883 13.0603L97.9551 12.2388L97.7008 12.4833C97.7008 12.4833 95.5101 11.2119 92.4001 11.965L93.1532 12.5615L91.5493 13.0897C91.5493 13.0897 87.9992 10.9674 87.3635 10.7523C87.3635 10.7523 87.031 10.586 86.7376 10.5371C86.7376 10.5371 86.3268 10.4491 85.9454 10.4687C85.9454 10.4687 85.74 10.4491 85.4271 10.7425C85.4271 10.7425 85.0555 10.9968 85.1728 11.6031C85.1728 11.6031 85.3489 12.5909 86.0823 13.0897C86.0823 13.0897 85.9259 12.2486 86.1704 11.7987C86.4149 11.3488 86.6007 11.5933 86.6007 11.5933C86.6007 11.5933 86.6789 11.6618 86.6398 11.7987C86.6007 11.9356 86.4833 12.5811 86.5713 12.7669C86.5713 12.7669 87.119 11.8867 88.0188 12.2388C88.0188 12.2388 88.1655 12.317 88.097 12.4735L87.8134 13.119L88.1361 13.0799C88.1361 13.0799 88.2339 13.0701 88.2339 13.1777C88.2339 13.1777 88.2339 13.207 88.1948 13.2364C88.1948 13.2364 87.8818 13.4515 87.6569 13.8036C87.6569 13.8036 89.4857 13.608 90.0138 13.7156L89.9943 13.6764Z" fill="#FDAB1C"/>
</svg>
