<svg width="256" height="252" viewBox="0 0 256 252" fill="none" xmlns="http://www.w3.org/2000/svg">
<path d="M129.47 215.807C79.4312 215.807 38.7319 175.344 38.7319 125.59C38.7319 75.8362 79.4312 35.374 129.47 35.374C179.508 35.374 220.207 75.8362 220.207 125.59C220.207 175.344 179.508 215.807 129.47 215.807ZM129.47 44.8317C84.6697 44.8317 48.1897 81.051 48.1897 125.59C48.1897 170.13 84.646 206.349 129.47 206.349C174.293 206.349 210.75 170.13 210.75 125.59C210.75 81.051 174.293 44.8317 129.47 44.8317Z" fill="white"/>
<path d="M189.464 102.93V72.1621L219.378 75.3384L220.871 98.3547L189.464 102.93ZM198.945 82.6866V91.9784L210.868 90.248L210.465 83.9191L198.969 82.6866H198.945Z" fill="white"/>
<path d="M120.344 251.978C119.68 251.978 118.993 251.86 118.329 251.647C116.693 251.078 115.366 249.821 114.702 248.21L109.108 234.698L108.16 235.196C106.121 236.263 103.704 236.097 101.831 234.77C99.9585 233.442 98.9867 231.238 99.2948 228.962C99.3659 228.441 99.437 227.943 99.5082 227.421C99.8874 224.695 100.243 222.112 100.219 219.718C100.172 215.996 99.0104 213.46 93.203 211.398C86.3289 208.98 79.4311 209.928 69.8074 212.417C67.6741 212.962 65.3985 212.322 63.8815 210.71C62.3645 209.122 61.8193 206.823 62.4593 204.713L62.9808 203.03C50.4178 203.812 39.443 199.427 30.317 189.946C28.1126 187.647 25.0074 185.845 21.7363 183.925C20.6933 183.309 19.603 182.669 18.5126 182.005C16.877 180.986 15.7867 179.303 15.5733 177.383C15.36 175.463 16.0237 173.59 17.3748 172.239L20.3615 169.276L6.02075 162.663C4.17186 161.81 3.05779 159.961 3.1526 157.946C3.20001 156.832 3.62668 155.812 4.31408 155.007C3.03408 154.319 1.96742 153.324 1.18519 152.067C-0.0473983 150.076 -0.355547 147.658 0.331861 145.407L5.33334 129.098C3.41334 127.795 2.29927 125.59 2.37038 123.267C2.74964 113.051 8.79408 100.18 20.3378 84.9384L13.6059 81.8569C11.8756 81.051 10.6667 79.4629 10.3822 77.5429C10.1215 75.6466 10.8089 73.774 12.2548 72.5177L30.6252 56.6125C24.5096 49.0747 20.1956 39.214 17.4933 26.6273C16.1659 20.4169 17.6119 13.9695 21.4993 8.89693C25.5763 3.611 31.7867 0.387297 38.5659 0.0554454C50.2282 -0.513443 60.6815 3.39767 69.5704 7.09544C72.7941 8.44656 75.7807 10.1295 78.6726 11.7888C81.1141 13.1873 83.437 14.491 85.8311 15.5814C87.1585 16.174 89.2207 16.3636 90.7615 16.0317C107.97 12.2629 123.425 12.0495 137.884 15.368C137.932 15.3206 137.979 15.2732 138.027 15.2258C139.591 13.7799 141.677 13.0688 143.787 13.2347C159.953 14.5621 172.99 22.0288 182.922 29.0925C183.467 28.6184 184.012 28.1443 184.533 27.6703C187.71 24.8732 190.72 22.2421 193.375 19.374C196.859 15.6288 201.624 13.7562 206.412 14.254C211.603 14.7991 216.32 18.0466 219.378 23.1429C224.83 32.2451 226.015 42.2243 226.441 49.8806C226.679 54.0051 226.37 58.0584 226.062 61.9932C225.873 64.6243 225.659 67.1132 225.636 69.6021C225.636 70.0288 226.228 71.2614 226.584 71.9962C226.75 72.3517 226.916 72.7073 227.058 73.0391C228.504 76.2629 230.021 79.534 231.633 82.9947L232.628 85.128C233.576 87.1429 233.41 89.4658 232.225 91.3147C231.822 91.931 231.348 92.4762 230.803 92.9028C231.277 93.8984 231.775 94.9177 232.296 95.9369C236.61 104.684 241.09 113.715 240.806 124.855L240.759 127.036L245.381 126.207C247.941 125.756 250.406 127.273 251.141 129.762C251.876 132.251 250.643 134.882 248.249 135.901C246.637 136.589 245.025 137.063 243.461 137.513C240.948 138.248 239.336 138.746 238.388 139.552H248.391C251.093 139.552 253.322 141.661 253.487 144.364C253.653 147.042 251.686 149.412 249.007 149.768L244.504 150.337L250.738 150.692C253.748 150.858 256.047 153.347 255.953 156.358C255.882 159.368 253.44 161.738 250.43 161.738H234.027C231.396 172.405 226.631 181.578 219.828 188.998C215.727 193.478 210.465 196.678 206.341 198.953C205.606 199.356 204.871 199.759 204.16 200.162C198.21 203.41 192.569 206.491 189.179 211.801C188.302 213.175 187.615 214.953 187.307 216.731C186.999 218.39 186.88 220.192 186.714 222.064C186.43 225.833 186.122 229.721 184.533 233.466C182.092 239.155 177.422 243.658 173.677 247.285C170.359 250.485 166.234 249.916 163.508 249.513C162.797 249.418 162.133 249.324 161.564 249.3C158.175 249.134 154.762 248.755 151.467 248.399C141.511 247.285 132.101 246.218 123.259 251.149C122.335 251.67 121.316 251.931 120.296 251.931L120.344 251.978ZM113.92 221.519L122.074 241.288C132.504 236.808 143.099 237.993 152.581 239.06C155.876 239.439 158.981 239.771 162.062 239.913C163.081 239.961 164.053 240.103 164.907 240.221C165.665 240.34 166.803 240.482 167.277 240.435C170.382 237.424 174.222 233.703 175.882 229.815C176.284 228.891 176.545 227.872 176.759 226.758C175.194 228.275 173.156 229.65 170.738 230.835C168.391 231.972 163.745 233.75 159.123 232.992H159.052C149.167 231.309 140.61 229.887 132.006 234.556L127.194 237.164L124.113 228.772L121.766 230.669L119.159 225.335C116.219 219.291 114.56 213.081 114.204 206.633L113.161 210.758L111.502 204.95L80.3319 192.079L81.1615 190.301C66.1333 189.448 51.6741 186.983 38.7082 176.861L31.7393 171.433L27.0222 176.103C30.5541 178.165 34.157 180.322 37.1437 183.427C45.9378 192.53 55.9645 195.492 68.717 192.743L76.6341 191.036L73.2682 201.916C80.6637 200.352 88.3911 199.712 96.3556 202.509C105.244 205.638 109.606 211.255 109.701 219.647C109.701 221.069 109.63 222.467 109.511 223.842L113.92 221.543V221.519ZM131.366 221.116L132.409 223.961C142.104 220.476 151.49 222.064 160.593 223.581H160.664C162.086 223.842 164.409 223.297 166.59 222.254C168.533 221.306 171.639 219.481 171.212 217.537C170.596 216.968 168.367 215.807 165.001 215.024C154.999 212.749 144.64 214.408 133.381 220.073L131.39 221.069L131.366 221.116ZM176.427 209.667C177.351 210.331 178.157 211.066 178.821 211.919C179.437 210.047 180.243 208.292 181.239 206.752C185.956 199.38 192.924 195.587 199.68 191.913C200.391 191.534 201.102 191.131 201.813 190.752C205.298 188.808 209.73 186.153 212.883 182.692C219.354 175.605 223.526 166.93 225.612 156.168L226.039 154.011C225.896 150.906 226.513 148.417 227.864 146.426L227.769 144.695C227.508 140.358 228.456 137.252 230.021 134.977L222.673 117.626L231.016 119.143C229.973 112.624 226.987 106.58 223.882 100.275C222.744 97.9754 221.559 95.6051 220.468 93.1636L223.55 104.944L218.335 101.578C218.809 103.238 219.283 104.66 219.733 106.035C220.8 109.187 221.701 111.913 221.63 114.971C221.535 118.764 219.022 121.964 216.32 124.832C214.708 126.562 212.812 127.747 210.987 128.932C210.252 129.407 209.493 129.881 208.782 130.378L205.962 132.346C206.53 135.19 207.076 138.011 207.597 140.808C208 142.941 208.403 145.098 208.806 147.232C208.972 148.014 209.019 148.796 209.019 149.531L215.324 144.861L212.551 157.282C212.267 158.515 212.053 159.866 211.84 161.288C210.797 167.759 209.517 175.842 200.794 180.772L200.059 181.199L191.905 192.861L184.154 187.433L187.567 182.574L186.24 182.195L188.136 175.487L183.538 172.429C180.978 173.14 178.465 173.851 175.976 174.538C175.479 174.681 175.004 174.823 174.507 174.941L179.816 178.781L172.113 175.605C167.609 176.861 163.271 178.07 158.839 179.232C157.298 179.635 155.804 179.848 154.359 179.872L154.122 185.655C144.901 185.3 143.787 184.21 136.391 174.396L140.847 171.03C140.824 170.959 140.8 170.888 140.776 170.817C137.956 162.426 131.65 160.648 121.576 158.444L121.244 158.372C124.705 163.943 124.682 169.252 123.496 173.97L126.364 189.424C127.716 196.844 129.019 203.907 132.812 209.975C134.424 209.264 136.036 208.624 137.624 208.055L135.633 204.31L162.228 186.888L163.342 194.165C163.532 195.421 164.551 196.346 165.784 196.464C168.178 196.678 170.003 196.512 171.591 192.174L180.48 195.421C178.916 199.712 176.569 202.698 173.511 204.381L179.081 206.752C178.584 207.913 177.636 208.956 176.45 209.762L176.427 209.667ZM93.0133 187.054L97.28 188.808C96.3319 187.386 95.2652 185.987 94.1274 184.612L93.0133 187.054ZM55.5852 154.058L65.8252 155.575C79.0756 157.543 94.5067 168.707 103.799 181.507C99.4607 172.215 93.6059 165.057 85.8548 159.463L82.2045 156.832L84.5748 153.158C80.4978 152.873 76.2311 152.518 71.68 152.091L51.8874 150.218C53.0489 151.546 54.2815 152.802 55.5852 154.011V154.058ZM53.0963 174.681C63.7393 179.801 75.5911 180.678 88.5096 181.081L91.0933 181.175C90.5956 180.654 90.0978 180.132 89.5763 179.611L73.7896 174.704C70.637 173.732 67.6504 172.571 64.8059 171.267L53.0963 174.657V174.681ZM107.07 167.972C108.99 170.841 110.72 173.898 112.261 177.217C115.058 170.698 115.864 166.93 112.498 162.378C110.673 159.913 110.53 156.713 112.095 153.892C111.147 153.703 110.199 153.513 109.25 153.347C110.246 155.575 110.981 158.301 111.597 161.62L113.399 171.623L107.07 167.996V167.972ZM20.2904 158.847L36.7645 166.432L32.2608 170.888L40.723 168.423L28.9659 161.999L29.5822 155.647L20.2904 158.823V158.847ZM197.144 170.082L198.282 170.841C199.277 169.892 199.988 168.802 200.533 167.546L197.144 170.082ZM149.073 166.076C149.286 166.621 149.499 167.19 149.713 167.783C150.898 171.291 155.449 170.272 156.373 170.035C156.847 169.916 157.298 169.798 157.772 169.655L149.096 166.076H149.073ZM127.004 142.989C128.996 142.989 131.058 143.605 132.551 144.648C136.036 147.066 139.52 149.602 143.194 152.281C144.498 153.229 145.825 154.201 147.224 155.196L164.622 167.807C166.519 167.285 168.439 166.74 170.382 166.195C169.197 165.578 167.988 164.891 166.85 164.014C162.916 160.98 159.265 157.543 159.336 152.968C159.407 148.535 162.797 145.478 166.447 142.847L169.292 140.784L172.089 142.894C172.871 143.487 173.582 144.15 174.175 144.719C174.554 145.075 175.099 145.596 175.431 145.833C182.329 146.663 189.748 147.303 199.253 147.872C198.898 146.094 198.566 144.292 198.234 142.515C197.144 136.684 196.006 130.663 194.513 124.927C193.588 121.418 190.578 115.801 186.145 114.687L176.735 112.34L184.367 106.367C186.122 104.992 187.402 104.02 188.373 103.285C190.254 101.847 192.442 99.7611 194.939 97.0273C195.627 96.2688 196.456 95.368 197.428 94.2777C200.344 91.0777 202.904 89.7266 204.587 88.8258C205.037 88.5888 205.653 88.2569 205.819 88.1147C205.819 88.1147 205.89 87.9725 205.985 87.5932L206.767 84.7014L207.716 84.5354C205.962 80.2214 203.923 76.3814 201.529 72.968L203.757 77.6614L192.948 73.7503C186.524 71.4273 181.31 72.5888 175.526 77.5666L171.804 80.7903L168.747 76.9266C161.92 68.3458 152.652 68.3932 141.89 68.3932C140.8 68.3932 139.71 68.3932 138.619 68.3932L129.541 68.3458L134.779 60.9266C136.889 57.9399 139.236 55.7829 141.724 54.2895C132.93 53.8866 124.089 56.3992 114.441 61.9221L101.689 69.2466L105.813 60.1917L100.551 61.6377C91.4963 64.1266 83.1763 66.6866 76.0889 71.451H88.4859L81.8015 79.2732C79.8578 81.5488 77.9378 83.6347 76.0889 85.6732C72.2963 89.8214 68.717 93.7562 66.0385 97.9517C61.2978 105.347 57.0548 113.644 53.4519 122.627C51.603 127.25 56.1067 130.07 57.5526 130.829C59.7333 131.99 62.2696 132.844 64.877 133.318C68.3378 133.958 71.917 134.479 75.4015 134.977C80.9956 135.783 86.7556 136.636 92.4207 137.987L93.7007 138.295C104.913 140.974 115.508 143.51 126.554 142.965C126.72 142.965 126.862 142.965 127.028 142.965L127.004 142.989ZM168.96 153.11C169.316 153.608 170.216 154.651 172.61 156.5C173.653 157.306 175.076 157.97 176.593 158.681C177.754 159.226 178.963 159.795 180.196 160.506C181.665 161.359 182.945 162.355 183.988 163.161C184.367 163.445 184.723 163.73 185.055 163.967L187.33 165.602L198.471 157.33C188.682 156.737 181.049 156.073 173.914 155.196C171.947 154.959 170.406 153.987 169.15 152.921C169.079 152.992 169.031 153.063 168.984 153.134L168.96 153.11ZM47.8815 161.549L53.5941 164.678C52.1956 163.635 50.8682 162.544 49.5645 161.383L47.8578 161.549H47.8815ZM9.86075 146.781L32.0237 150.645C28.4208 148.014 24.2489 146.07 19.2474 144.601L14.5067 143.202L24.32 114.236L19.1763 116.298L9.86075 146.758V146.781ZM53.5704 100.298C47.6208 107.125 42.6667 114.852 41.6237 124.287C41.197 128.055 41.5289 131.706 42.5245 134.29C44.0889 138.438 46.0326 142.207 48.3082 145.596L66.9156 143.297C65.6593 143.084 64.3793 142.87 63.123 142.657C59.5674 141.993 56.083 140.808 53.0726 139.22C44.9185 134.906 41.5289 126.823 44.6104 119.119C47.2889 112.482 50.2756 106.177 53.5704 100.298ZM26.5719 137.087C29.7008 138.295 32.5689 139.718 35.2 141.377C34.6548 140.168 34.1333 138.912 33.6593 137.632C32.1422 133.626 31.6208 128.506 32.2133 123.22C32.4504 121.181 32.8059 119.214 33.28 117.318L26.5719 137.087ZM19.7926 102.527C15.6919 109.353 13.5822 114.663 12.5867 118.716L15.1467 117.389L17.6593 108.666C18.2756 106.556 18.9867 104.518 19.7926 102.527ZM39.917 97.7384L35.5319 110.681C38.4948 103.735 43.0222 97.7858 47.9289 92.3577L34.7733 95.1784C33.2563 97.1932 31.9526 99.2792 30.7911 101.412L39.917 97.7384ZM210.418 96.411C209.944 96.6954 209.47 96.9562 209.019 97.1932C207.644 97.928 206.246 98.6628 204.421 100.654C203.449 101.721 202.643 102.621 201.932 103.38C201.316 104.067 200.77 104.66 200.296 105.181L209.73 99.2317L210.394 96.411H210.418ZM217.956 84.9147H222.104C220.847 82.2125 219.639 79.6051 218.477 76.974C218.359 76.6895 218.216 76.3814 218.074 76.0969C217.244 74.3191 216.202 72.1147 216.249 69.531C216.296 66.7577 216.51 64.008 216.699 61.3295C216.984 57.5369 217.268 53.9814 217.079 50.4732C216.865 46.7517 216.462 42.3903 215.348 38.0051C215.206 42.1769 214.898 46.3251 214.59 50.7577C214.471 52.4406 214.353 54.171 214.234 55.9488L213.665 64.5532L188.753 46.254L192.284 42.3666C193.161 41.4184 194.015 40.4466 194.844 39.4984C197.025 37.0569 199.277 34.5443 201.671 32.174C202.24 31.6288 202.904 31.1547 203.662 30.7517C206.08 29.4954 208.972 29.5191 211.342 30.8466C212.267 31.3443 213.049 32.0317 213.689 32.814C213.049 31.2021 212.267 29.5903 211.342 28.0495C209.825 25.5132 207.692 23.9488 205.511 23.7117C203.686 23.5221 201.861 24.2806 200.391 25.8688C197.404 29.0925 194.062 32.008 190.862 34.8288C189.416 36.0851 187.947 37.3888 186.477 38.7162L183.585 41.3473L180.456 39.0006C171.615 32.3873 159.692 24.6836 145.09 22.9058V27.1014L139.093 25.4658C125.108 21.6258 109.985 21.5784 92.8474 25.3236C89.3393 26.0821 85.1911 25.6791 82.0148 24.2569C79.2178 23.0006 76.5867 21.5073 74.0504 20.0614C71.3008 18.4969 68.6933 17.0036 65.9911 15.8895C57.6948 12.4288 48.7585 9.08656 39.0637 9.56063C35.0578 9.75026 31.4074 11.6229 29.037 14.7043C26.8089 17.5962 26.0267 21.128 26.7852 24.6599C29.5822 37.6021 34.1333 47.1073 40.7467 53.6969L44.3496 57.2999L23.04 75.7414L34.6548 81.051C35.3422 80.3873 36.0296 79.7473 36.7408 79.0836L29.8904 76.168L32.403 71.5695C35.3896 66.094 44.2785 61.0451 54.5659 57.5369L51.0578 57.774L55.3956 51.208L53.997 51.374L58.6667 40.968C55.68 41.4421 53.9259 44.0021 53.523 44.6658L50.2756 50.1177L51.0815 54.6451L48.4741 53.1517L48.237 53.5784L48 52.891L42.2637 49.5962C35.0104 45.4243 28.2548 31.4629 31.5496 23.4273C33.1615 19.5162 38.3289 15.0125 43.1645 14.8229C48.9482 14.5858 54.9452 15.7947 59.6385 18.1414C70.803 23.7354 82.7496 30.3488 96.1422 38.2895L99.6504 40.4229L105.197 38.6214L96.7585 31.8895L106.572 29.8273C125.796 25.774 141.535 26.7458 156.065 32.8377L159.147 34.094L161.849 31.5577L164.764 32.9562C168.462 34.734 172.089 36.5592 176.284 38.6925C177.801 39.451 179.366 40.2569 181.049 41.1103L189.179 45.211L179.484 50.3784C186.122 49.5725 193.138 51.3977 198.708 55.9962C207.407 63.1547 213.641 72.4703 217.979 84.8673L217.956 84.9147ZM63.4548 80.9562L65.5645 83.1843C66.2282 82.4495 66.8919 81.691 67.5556 80.9562H63.4548ZM55.277 80.9562C55.2059 81.0273 55.1585 81.0984 55.0874 81.1695L56.0593 80.9562H55.277ZM45.037 72.328L48.8296 73.9399C51.0341 71.4984 53.3333 69.2466 55.7748 67.1843C51.2 68.891 47.597 70.6925 45.037 72.328ZM170.643 65.6436C171.425 66.2599 172.207 66.8999 172.99 67.6347C174.933 66.331 176.924 65.3117 178.916 64.5769C177.209 64.6717 175.265 64.9562 173.084 65.288C172.279 65.4066 171.473 65.5251 170.643 65.6436ZM106.335 56.0436L107.378 56.731L107.757 55.9251C107.804 55.8066 107.852 55.7117 107.899 55.6169L106.335 56.0673V56.0436ZM102.898 53.7917L108.516 54.1473C108.563 54.0288 108.61 53.9103 108.658 53.7917C109.156 52.6303 109.559 51.611 110.27 50.6154C111.573 48.7429 113.114 47.0125 114.892 45.448L98.4178 50.8051L91.2356 46.4199C78.08 38.5977 66.323 32.1266 55.3719 26.6273C52.1482 25.0154 47.7393 24.1384 43.5911 24.3043C42.643 24.494 40.6756 26.1058 40.2963 27.054C39.8933 28.0258 40.1067 29.8036 40.7467 31.7947C41.5289 29.8036 42.6904 28.0021 44.4445 26.651C46.6015 24.9917 49.4933 24.8258 51.84 26.2243C53.9496 27.5043 55.1348 29.7562 54.9926 32.174C57.837 31.2495 61.1556 31.0836 64.877 32.3399C66.7022 32.9562 68.1719 34.2836 68.9304 36.014C69.6652 37.6969 69.6652 39.5932 68.9067 41.2762L68.6459 41.8688C69.357 42.4614 69.9259 43.2199 70.2578 44.1206C70.6133 44.9977 70.7082 45.9458 70.5896 46.8466C80.7822 46.088 91.2593 46.254 101.831 53.128L102.874 53.7917H102.898ZM159.976 49.1458C160.664 49.454 161.375 49.7858 162.062 50.1414L166.258 44.7606L167.751 45.9221L168.604 45.4717C167.253 44.7843 165.95 44.1206 164.67 43.5043C164.67 43.5043 164.693 43.528 164.717 43.5517L159.953 49.1695L159.976 49.1458ZM202.785 44.8554L205.369 46.7517C205.487 45.0214 205.606 43.3384 205.701 41.6554C204.729 42.6984 203.781 43.7651 202.785 44.8554ZM118.779 37.4125L122.453 40.3517C125.393 38.8821 128.616 37.7443 132.03 36.9858C127.834 36.7488 123.425 36.891 118.779 37.4362V37.4125Z" fill="white"/>
<path d="M113.138 210.734L108.302 193.833C103.846 178.236 96.7112 167.333 85.8312 159.487L82.1808 156.855L84.5512 153.181C80.4741 152.897 76.2075 152.541 71.6563 152.115L28.3971 148.038L66.8919 143.273C65.6356 143.06 64.3556 142.847 63.0993 142.633C59.5438 141.97 56.0593 140.784 53.0489 139.196C44.8949 134.882 41.5052 126.799 44.5867 119.095C48.4267 109.567 52.9304 100.725 57.9793 92.8317C60.7289 88.5651 64.0001 84.7962 67.5082 80.9088H53.5467L60.0415 73.134C67.1052 64.6718 75.7097 59.9073 84.9778 56.5177C79.1467 55.5458 73.1023 56.0673 66.5126 56.6599C64.5689 56.8258 62.5304 57.0155 60.5156 57.1577L46.3408 58.1058L50.6075 54.4318L42.1926 49.5962C34.9393 45.4243 28.1838 31.4629 31.4786 23.4273C33.0904 19.5162 38.2578 15.0125 43.0934 14.8229C48.8771 14.5858 54.8741 15.7947 59.5675 18.1414C70.7319 23.7355 82.6786 30.3488 96.0712 38.2895C99.603 40.3755 100.599 40.4229 102.424 39.5221C103.23 39.1192 104.059 38.7636 104.889 38.4555L96.6638 31.8895L106.477 29.8273C125.725 25.774 141.44 26.7458 155.994 32.8614C156.255 32.9799 156.516 33.0984 156.753 33.2169C159.17 31.368 162.916 32.1266 164.67 32.9562C168.367 34.734 171.994 36.5592 176.19 38.6925C177.707 39.451 179.271 40.2569 180.954 41.1103L191.194 46.2777L180.29 49.8332C179.484 50.094 178.726 50.3547 177.991 50.5918C185.031 49.3355 192.664 51.0895 198.637 55.9962C209.162 64.6718 216.059 76.4525 220.397 93.0925L223.479 104.873L213.262 98.2599C212.954 98.0466 212.67 97.8806 212.433 97.7384L197.286 111.226C201.055 114.45 202.69 118.93 203.615 122.485C205.227 128.553 206.388 134.764 207.502 140.761C207.905 142.894 208.308 145.051 208.711 147.184C209.28 150.1 208.664 152.755 206.981 154.698C205.322 156.618 202.833 157.567 200.012 157.401C189.464 156.784 181.381 156.097 173.843 155.173C171.876 154.935 170.335 153.964 169.079 152.897C169.007 152.968 168.96 153.039 168.913 153.11C169.268 153.608 170.169 154.651 172.563 156.5C173.606 157.306 175.028 157.97 176.545 158.681C177.707 159.226 178.916 159.795 180.148 160.506C181.618 161.359 182.898 162.355 183.941 163.161C184.32 163.445 184.676 163.73 185.007 163.967L192.948 169.727L183.49 172.358C180.907 173.069 178.347 173.78 175.858 174.491C175.36 174.633 174.886 174.775 174.388 174.894L179.698 178.734L171.994 175.558C167.49 176.814 163.153 178.023 158.72 179.184C150.495 181.341 143.076 177.904 140.682 170.793C137.861 162.402 131.556 160.624 121.482 158.42L121.15 158.349C126.839 167.475 123.117 175.913 120.367 182.171C119.609 183.901 119.159 186.011 118.566 188.666C118.234 190.135 117.879 191.818 117.405 193.691L113.09 210.734H113.138ZM107.07 167.972C108.99 170.841 110.72 173.898 112.261 177.217C115.058 170.698 115.864 166.93 112.498 162.378C110.673 159.913 110.53 156.713 112.095 153.892C111.147 153.703 110.199 153.513 109.25 153.347C110.246 155.575 110.981 158.301 111.597 161.62L113.399 171.623L107.07 167.996V167.972ZM149.073 166.076C149.286 166.621 149.499 167.19 149.713 167.783C150.898 171.291 155.449 170.272 156.373 170.035C156.847 169.916 157.298 169.798 157.772 169.655L149.096 166.076H149.073ZM143.716 152.636C144.853 153.466 146.015 154.319 147.247 155.196L164.646 167.807C166.542 167.285 168.462 166.74 170.406 166.195C169.221 165.578 168.012 164.891 166.874 164.014C162.939 160.98 159.289 157.543 159.36 152.968C159.431 148.535 162.821 145.478 166.471 142.847L169.316 140.784L172.113 142.894C172.895 143.487 173.606 144.15 174.199 144.719C174.578 145.075 175.123 145.596 175.455 145.833C182.353 146.663 189.772 147.303 199.277 147.872C198.922 146.094 198.59 144.292 198.258 142.515C197.167 136.684 196.03 130.663 194.536 124.927C193.185 119.854 191.479 117.744 187.947 116.867L179.247 114.687L209.067 88.1147C207.028 82.2836 204.539 77.2821 201.529 72.9681L203.757 77.6614L192.948 73.7503C186.525 71.4273 181.31 72.5888 175.526 77.5666L175.147 77.8984C175.81 78.5147 176.379 79.2258 176.901 80.008C178.797 77.4955 180.859 76.5947 182.376 76.2866C184.652 75.8362 186.975 76.4762 188.942 78.0643L191.265 79.9606L185.719 102.835L180.077 99.0184C178.157 97.7147 176.664 96.1029 175.645 94.3251C174.056 96.1029 171.947 97.6436 169.41 98.8288L161.659 102.384C162.228 102.574 162.797 102.787 163.342 103.001C164.148 103.309 165.286 103.475 166.495 103.664C167.182 103.759 167.893 103.878 168.628 104.02L172.421 104.755L172.563 113.881L160.498 116.298L157.322 139.575L150.424 126.87C149.57 125.306 148.978 123.741 148.385 122.201C146.489 117.27 145.92 116.867 143.929 116.962C140.705 117.128 137.339 118.29 133.76 119.522C132.101 120.091 130.37 120.684 128.64 121.181L118.305 124.121C123.07 126.681 127.763 129.312 132.385 131.919C134.993 133.389 137.6 134.858 140.207 136.304C142.483 137.561 143.905 139.552 145.067 141.33L157.44 160.34L144.213 151.641L143.787 152.684L143.716 152.636ZM54.2578 120.589C53.9734 121.276 53.6889 121.94 53.4282 122.627C51.5793 127.25 56.083 130.07 57.5289 130.829C59.7097 131.99 62.246 132.844 64.8534 133.318C68.3141 133.958 71.8934 134.479 75.3778 134.977C76.8238 135.19 78.2934 135.404 79.763 135.641L79.9289 130.355C78.2934 130.07 76.6815 129.81 75.0697 129.549C71.5615 128.98 67.9586 128.364 64.403 127.747C60.8475 127.107 56.8889 126.135 55.0164 122.722C54.6371 122.035 54.4001 121.324 54.2578 120.612V120.589ZM100.101 115.35C102.447 116.275 104.747 117.27 107.022 118.361C110.744 120.162 114.442 122.058 118.068 124.002L124.16 112.364L119.49 106.627L120.415 118.361L112.403 113.264C105.6 108.927 103.372 102.858 102.637 97.6436L92.8475 96.2688L101.12 112.695L100.077 115.303L100.101 115.35ZM63.8104 117.934C64.3082 118.076 65.0193 118.242 66.0386 118.408C68.9304 118.93 71.8934 119.427 74.8089 119.901L75.3304 116.346C73.4578 115.066 72.3675 113.596 71.7512 112.387C70.8504 110.633 70.0445 107.741 71.2771 103.878C71.5141 103.167 71.7512 102.432 72.0119 101.721C69.2623 106.011 66.7734 110.799 64.4978 116.18C64.166 116.938 63.9763 117.507 63.8341 117.934H63.8104ZM144.213 107.481C147.485 107.481 149.926 108.5 151.751 110.017L151.893 108.998C149.57 108.05 147.271 106.841 145.304 105.087C139.805 100.18 133.95 97.0984 126.91 95.3917C125.132 94.9651 123.259 94.5147 121.363 93.9221L133.973 109.424C136.984 108.452 140.089 107.647 143.407 107.504C143.668 107.504 143.953 107.504 144.213 107.504V107.481ZM100.859 63.9843L90.7852 81.9518C90.5008 82.4732 90.1689 82.9947 89.8608 83.5162C89.3156 84.4169 88.7941 85.2703 88.486 86.0525C87.8223 87.688 87.1349 89.3236 86.4475 90.9592C84.2667 96.1266 82.0149 101.484 80.2845 106.817C80.0949 107.386 80.0475 107.86 80.166 108.05C80.2608 108.263 80.6875 108.642 81.6356 109.045C81.2326 106.414 82.5126 103.641 83.6504 101.152C84.1008 100.156 84.5749 99.1606 84.8593 98.331L85.8786 95.3443L84.8356 95.2021L86.4001 93.851L88.5097 87.7117L90.0267 90.7221L111.55 72.2095L114.323 77.4954C117.167 82.9473 121.813 84.4169 129.114 86.171C137.624 88.2332 144.972 92.0969 151.609 97.9992C153.434 99.6347 156.421 100.63 159.573 101.673C159.858 101.768 160.142 101.863 160.427 101.958L162.844 93.2347C164.433 87.4747 163.058 87.0717 160.735 86.408L150.969 83.5873L159.407 77.9221C162.347 75.9547 164.954 75.2199 167.087 75.0777C160.45 68.3458 151.775 68.3932 141.89 68.4169C140.8 68.4169 139.71 68.4169 138.619 68.4169L129.541 68.3695L134.779 60.9503C136.889 57.9636 139.236 55.8066 141.725 54.3132C132.907 53.9103 124.089 56.4229 114.442 61.9458L101.689 69.2703L105.813 60.2155L100.551 61.6614C91.4964 64.1503 83.1764 66.7103 76.0889 71.4747H88.486L86.0682 74.3192L100.907 63.9843H100.859ZM215.253 94.4673L215.656 94.9177L215.609 94.9651C216.462 94.2303 216.96 93.2821 217.15 92.334L215.87 94.3014L215.253 94.4673ZM106.927 88.7073L111.668 89.371L111.739 91.7888L113.991 90.6747C112.308 89.6317 110.696 88.328 109.227 86.6925L106.904 88.6836L106.927 88.7073ZM170.643 65.6436C171.425 66.2599 172.207 66.8999 172.99 67.6347C174.933 66.331 176.924 65.3117 178.916 64.5769C177.209 64.6717 175.265 64.9562 173.085 65.288C172.279 65.4066 171.473 65.5251 170.643 65.6436ZM77.8667 46.5384C85.7364 46.5384 93.7482 47.8658 101.855 53.128L107.378 56.7073L107.757 55.9014C108.136 55.048 108.421 54.3606 108.658 53.7918C109.156 52.6303 109.559 51.611 110.27 50.6155C111.597 48.7192 113.162 46.9651 114.939 45.3769C114.11 45.614 113.327 45.8273 112.545 46.0406C110.27 46.6569 108.302 47.2021 106.69 48.008C100.267 51.208 95.3601 48.8851 91.283 46.4436C78.0564 38.5977 66.323 32.1029 55.3482 26.6036C52.1245 24.9918 47.7156 24.1147 43.5675 24.2806C42.6193 24.4703 40.6519 26.0821 40.2726 27.0303C40.0593 27.528 40.0119 28.5947 40.2726 30.1118C41.9319 28.571 44.0652 27.9073 45.4638 27.5043L50.9156 25.8688L51.7452 33.5725L68.883 36.5592L66.7497 42.3666L76.8238 44.4051L74.2401 46.6332C75.4252 46.5858 76.6341 46.5621 77.8193 46.5621L77.8667 46.5384ZM168.699 53.6258L169.387 54.0051C170.003 53.6021 170.643 53.2466 171.307 52.9147C170.43 53.1755 169.576 53.4362 168.723 53.6495L168.699 53.6258ZM48.7586 42.6747C48.9245 43.2673 49.0667 43.8125 49.1852 44.2866L51.6978 53.5784L56.0356 49.8569L54.1393 49.4777L56.1541 43.9784L48.7586 42.6984V42.6747ZM164.693 43.4806L164.741 43.528C165.333 44.0495 165.76 44.334 166.021 44.5236C166.187 44.4762 166.353 44.4525 166.519 44.4051C165.902 44.0969 165.286 43.7888 164.693 43.4806ZM118.779 37.4125L122.453 40.3518C125.393 38.8821 128.616 37.7443 132.053 36.9858C127.858 36.7488 123.449 36.891 118.803 37.4362L118.779 37.4125Z" fill="white"/>
<path d="M113.659 205.827L80.3319 192.055L81.1615 190.278C66.1334 189.424 51.6741 186.959 38.7082 176.838L31.3837 171.149L40.723 168.447L28.966 162.023L29.7482 153.869L35.2238 153.324C30.9571 149.341 25.7897 146.544 19.2475 144.624L14.5067 143.226L24.32 114.26L14.9571 118.029L17.6593 108.666C20.9304 97.3829 26.9275 88.0199 36.7408 79.0836L29.8904 76.1681L32.403 71.5695C38.3289 60.7369 67.3423 51.5636 84.6697 52.6303L112.119 54.3132L85.6889 61.8984C73.1497 65.5014 63.3838 71.5695 55.0875 81.0984L62.1986 79.5814L69.0489 86.7873L64.9245 89.9873C64.0949 90.651 63.2415 91.2436 62.4119 91.8362C60.8 92.9977 59.283 94.0881 58.0978 95.2969C50.2993 103.356 42.9038 112.435 41.6 124.215C41.1734 127.984 41.5052 131.635 42.5008 134.218C45.5349 142.207 49.8726 148.772 55.5852 153.987L65.8252 155.504C84.1956 158.23 106.714 178.592 111.313 196.583L113.636 205.732L113.659 205.827ZM93.0134 187.054L97.28 188.808C96.3319 187.386 95.2652 185.987 94.1274 184.613L93.0134 187.054ZM53.0963 174.681C63.7393 179.801 75.5912 180.678 88.5097 181.081L91.0934 181.175C90.5956 180.654 90.0978 180.132 89.5763 179.611L73.7897 174.704C70.6371 173.733 67.6504 172.571 64.806 171.267L53.0963 174.657V174.681ZM47.8815 161.549L53.5941 164.678C52.1956 163.635 50.8682 162.544 49.5645 161.383L47.8578 161.549H47.8815ZM26.5719 137.087C29.7008 138.295 32.5689 139.718 35.2 141.377C34.6549 140.168 34.1334 138.912 33.6593 137.632C32.1423 133.626 31.6208 128.506 32.2134 123.22C32.4504 121.181 32.806 119.214 33.28 117.318L26.5719 137.087ZM39.9171 97.7384L35.5319 110.681C38.4949 103.735 43.0223 97.7858 47.9289 92.3577L34.7734 95.1784C33.2563 97.1932 31.9526 99.2792 30.7912 101.413L39.9171 97.7384ZM44.9897 72.3043L48.8534 73.9399C51.0815 71.4747 53.4045 69.2229 55.846 67.1606C51.5319 68.7725 47.7393 70.574 45.0134 72.3043H44.9897Z" fill="white"/>
<path d="M127.17 237.14L124.089 228.749L121.742 230.645L119.135 225.312C113.327 213.365 112.569 200.826 116.788 186.983L122.453 168.494L126.341 189.401C127.692 196.82 128.996 203.884 132.788 209.952C144.711 204.666 155.97 203.338 167.087 205.851C171.117 206.775 178.133 209.051 180.006 214.053C182.447 220.571 178.963 226.853 170.714 230.835C168.367 231.973 163.722 233.75 159.099 232.992H159.028C149.144 231.309 140.587 229.887 131.982 234.556L127.17 237.164V237.14ZM131.366 221.116L132.409 223.961C142.104 220.476 151.49 222.064 160.593 223.581H160.664C162.086 223.842 164.409 223.297 166.59 222.254C168.533 221.306 171.639 219.481 171.212 217.537C170.596 216.968 168.367 215.807 165.002 215.024C154.999 212.749 144.64 214.408 133.381 220.073L131.39 221.069L131.366 221.116Z" fill="white"/>
<path d="M213.641 64.5769L188.729 46.2777L192.261 42.3903C193.138 41.4421 193.991 40.4703 194.821 39.5221C197.001 37.0806 199.253 34.568 201.647 32.1977C202.216 31.6525 202.88 31.1784 203.639 30.7754C206.056 29.5191 208.948 29.5429 211.319 30.8703C213.594 32.1266 215.087 34.3784 215.301 36.9384C215.324 37.2466 215.348 37.5547 215.324 37.8391C215.182 42.0584 214.874 46.2777 214.566 50.7577C214.447 52.4406 214.329 54.171 214.21 55.9488L213.641 64.5532V64.5769ZM202.785 44.8554L205.369 46.7517C205.487 45.0214 205.606 43.3384 205.701 41.6554C204.729 42.6984 203.781 43.7651 202.785 44.8554Z" fill="white"/>
<path d="M140.018 212.583L135.609 204.239L162.204 186.817L163.65 196.038C168.723 197.081 170.121 196.132 171.591 192.079L180.48 195.327C178.75 200.044 176.237 202.77 173.464 204.263L179.058 206.657C177.707 209.81 173.013 212.014 169.576 211.113C158.862 208.269 149.191 208.743 140.018 212.583Z" fill="white"/>
<path d="M198.21 182.147L180.693 170.509L215.277 144.814L212.504 157.235C212.219 158.467 212.006 159.818 211.793 161.241C210.75 167.712 209.47 175.795 200.747 180.725L198.21 182.147ZM197.144 170.082L198.282 170.841C199.277 169.892 199.988 168.802 200.533 167.546L197.144 170.082Z" fill="white"/>
<path d="M204.207 133.507L194.844 114.402L201.932 113.975C206.033 113.715 206.886 111.795 208.569 104.257C208.759 103.427 208.948 102.574 209.138 101.744L213.357 84.0851L218.311 101.555C218.785 103.19 219.259 104.612 219.71 106.011C220.776 109.164 221.677 111.89 221.606 114.947C221.511 118.74 218.999 121.94 216.296 124.808C214.684 126.538 212.788 127.724 210.963 128.909C210.228 129.383 209.47 129.857 208.759 130.355L204.231 133.531L204.207 133.507Z" fill="white"/>
<path d="M154.785 194.568L145.778 191.653L147.959 184.968C143.739 183.973 141.677 181.436 136.367 174.373L143.929 168.684C146.726 172.381 148.575 174.847 149.642 175.558C150.258 175.961 151.324 176.032 154.453 176.15L160.711 176.387L154.809 194.568H154.785Z" fill="white"/>
<path d="M191.834 192.79L184.083 187.362L187.496 182.503L186.169 182.124L188.729 173.021L202.904 177.004L191.834 192.79Z" fill="white"/>
<path d="M204.326 117.578C202.074 117.578 199.704 117.033 197.381 116.441L186.809 113.667L217.173 94.5147L215.206 105.158C214.4 109.448 213.333 113.833 209.707 116.132C208.047 117.175 206.222 117.555 204.326 117.555V117.578Z" fill="white"/>
<path d="M157.369 160.292L144.142 151.593L141.867 156.998L137.292 154.58C117.547 144.127 98.7022 138.485 79.7156 137.324L79.9289 130.378C78.2934 130.094 76.6815 129.833 75.0697 129.573C71.5615 129.004 67.9585 128.387 64.403 127.771C60.8474 127.131 56.8889 126.159 55.0163 122.746C53.2623 119.498 54.3289 115.919 55.7511 112.53C62.6252 96.1977 71.8697 84.1799 83.9585 75.7651L100.859 64.0081L90.7852 81.9755C90.5008 82.497 90.1689 83.0184 89.8608 83.5399C89.3156 84.4406 88.7941 85.294 88.486 86.0762C87.8223 87.7118 87.1348 89.3473 86.4474 90.9829C84.2667 96.1503 82.0148 101.507 80.2845 106.841C80.0948 107.41 80.0474 107.884 80.166 108.073C80.3082 108.334 80.9245 108.879 82.4178 109.353L82.8919 109.495C90.9274 112.008 99.2237 114.615 107.022 118.384C115.674 122.556 124.136 127.321 132.314 131.919C134.922 133.389 137.529 134.858 140.136 136.304C142.412 137.561 143.834 139.552 144.996 141.33L157.369 160.34V160.292ZM63.8104 117.934C64.3082 118.076 65.0193 118.242 66.0385 118.408C68.9304 118.93 71.8934 119.427 74.8089 119.901L75.3304 116.346C73.4578 115.066 72.3674 113.596 71.7511 112.387C70.8504 110.633 70.0445 107.741 71.2771 103.878C71.5141 103.167 71.7511 102.432 72.0119 101.721C69.2622 106.011 66.7734 110.799 64.4978 116.18C64.166 116.938 63.9763 117.507 63.8341 117.934H63.8104Z" fill="white"/>
<path d="M157.298 139.552L150.4 126.847C149.547 125.282 148.954 123.718 148.361 122.177C146.465 117.247 145.896 116.844 143.905 116.938C140.681 117.104 137.316 118.266 133.736 119.498C132.077 120.067 130.347 120.66 128.616 121.158L118.021 124.168L124.207 112.364L119.538 106.627L120.462 118.361L112.45 113.264C105.647 108.927 103.419 102.858 102.684 97.6436L84.8829 95.1547L111.621 72.1858L114.394 77.4718C117.238 82.9236 121.884 84.3932 129.185 86.1473C137.695 88.2095 145.043 92.0732 151.68 97.9755C153.505 99.611 156.492 100.607 159.644 101.65C160.877 102.052 162.157 102.479 163.413 102.977C164.219 103.285 165.357 103.451 166.566 103.641C167.253 103.735 167.964 103.854 168.699 103.996L172.492 104.731L172.634 113.857L160.569 116.275L157.393 139.552H157.298ZM106.927 88.7073L111.668 89.371L111.739 91.7888L113.991 90.6747C112.308 89.6317 110.696 88.328 109.227 86.6925L106.904 88.6836L106.927 88.7073Z" fill="white"/>
<path d="M165.239 161.975L149.381 141.685L149.215 141.401C149.144 141.258 140.682 127.036 131.484 131.232C129.47 132.156 127.336 132.701 125.132 132.844L112.213 133.697L122.833 123.457C123.781 122.556 124.847 121.727 126.033 120.992C126.839 120.494 127.621 119.996 128.427 119.498C131.674 117.436 135.064 115.303 138.904 113.881C143.313 112.269 149.926 115.492 151.846 119.167C154.762 124.808 158.364 137.395 158.744 138.817L165.262 161.952L165.239 161.975Z" fill="white"/>
<path d="M160.118 103.095L162.844 93.2584C164.433 87.4984 163.058 87.0955 160.735 86.4318L150.969 83.611L159.407 77.9458C164.053 74.8406 167.846 74.8169 170.24 75.3384C173.132 75.9784 175.526 77.7325 177.138 80.3873C178.868 83.2081 179.295 86.4792 178.347 89.5606C177.161 93.4244 173.985 96.7192 169.387 98.8288L160.118 103.095Z" fill="white"/>
<path d="M185.719 102.858L180.077 99.0421C174.08 94.9888 172.35 88.091 175.739 81.8806C177.896 77.9458 180.551 76.6658 182.4 76.3103C184.676 75.8599 186.999 76.4999 188.966 78.088L191.289 79.9843L185.742 102.858H185.719Z" fill="white"/>
<path d="M97.9675 120.731L93.2979 118.266C92.563 117.887 91.6623 117.507 90.6904 117.104C87.7749 115.895 84.4801 114.521 82.5127 111.439C80.403 108.121 82.1097 104.423 83.6267 101.152C84.0771 100.156 84.5512 99.1607 84.8356 98.331L88.486 87.7118L101.096 112.743L97.9201 120.731H97.9675Z" fill="white"/>
<path d="M135.514 112.127C128.308 112.127 122.572 109.495 120.841 99.1132L119.372 90.248L159.336 108.903L144 111.321C141.061 111.771 138.193 112.15 135.514 112.15V112.127Z" fill="white"/>
<path d="M161.849 159.321C161.399 158.87 160.948 158.301 160.545 157.614L149.807 142.159L149.594 141.401C146.939 132.038 144.379 125.827 143.573 123.955C141.985 122.58 138.833 124.31 138.785 124.31L133.333 116.63C136.747 113.62 140.705 112.198 144.711 112.506C147.153 112.695 149.31 113.478 151.135 114.45L151.965 108.31L152.984 108.097L154.785 104.423C155.757 102.432 155.188 100.132 154.596 98.6392C125.132 91.6703 114.536 80.9799 110.791 74.9355C104.747 77.1873 102.258 83.5636 101.262 87.9251L103.443 88.2332L104.202 91.3621C108.089 107.244 116.433 114.521 116.504 114.592L126.246 122.935H118.708L121.126 126.278L114.916 128.292C112.308 129.146 109.582 129.146 106.975 128.292L103.111 127.036L102.803 126.87C95.5734 123.244 79.763 118.432 79.5971 118.384C74.6667 116.867 72.486 114.07 71.5379 112.008C69.8312 108.334 70.8742 104.897 71.3008 103.759C73.0786 98.2362 74.809 93.6377 76.3497 89.9162C69.6653 94.1118 65.683 98.4732 64.2134 100.82L56.0593 96.0318C58.4297 91.8362 63.3364 85.8155 67.5319 80.9562H54.4949L59.8993 73.4421C65.7542 65.3118 76.2549 59.9073 84.8119 56.6125C84.0534 56.4703 83.4134 56.3518 82.9393 56.2806L82.6549 56.2332C79.5734 55.5695 68.006 56.3992 60.7764 57.1814L51.1053 58.2243L55.443 51.2555L53.9971 51.4214L58.643 41.0155C55.7275 41.5132 53.8786 44.1206 53.4519 44.7843L50.2045 49.9755L51.2238 55.7592L41.9319 49.4066C33.3986 43.5755 31.1468 32.648 30.9571 31.6525C29.6297 24.8732 32.806 20.3695 35.129 18.568C38.8268 15.2732 41.7897 14.7992 43.3068 14.8229C47.3127 14.6332 51.3423 15.4155 52.1008 15.5814C55.1823 16.1029 58.3349 17.5488 59.3068 17.9992C65.8253 20.4406 91.8282 35.8243 99.5793 40.4466L105.15 38.6214L97.0193 32.1266L106.406 29.851C132.148 23.6169 151.87 30.5384 159.313 33.9043L161.873 31.5103L189.179 45.1873L179.461 50.3784C180.267 50.2836 181.12 50.2362 181.997 50.2362H182.116C192 50.2362 197.665 55.0243 198.827 56.1384C216.628 71.4036 220.35 92.5947 220.516 93.4955L211.342 95.7236C210.584 93.3769 209.162 91.2436 207.692 89.4658C204.397 96.411 199.182 100.298 194.939 102.432L203.259 103.759L195.911 109.401C201.458 114.473 203.757 122.485 204.065 123.694L204.113 123.86C204.966 127.581 208.616 146.402 208.759 147.208C209.517 151.119 208.19 153.561 206.933 154.888C204.563 157.448 201.245 157.495 200.083 157.424C192.806 157.306 176.972 155.552 174.673 155.291C172.302 155.22 170.43 154.035 169.15 152.968C169.079 153.063 169.031 153.134 168.984 153.205V153.253C169.008 153.253 168.913 153.347 168.913 153.347C168.889 153.418 168.865 153.442 168.865 153.442C168.865 153.418 168.865 153.395 168.865 153.371L161.802 159.344L161.849 159.321ZM175.431 145.81H175.526C175.692 145.833 191.573 147.635 199.277 147.895C198.471 143.818 195.65 129.312 194.916 126.041C194.157 123.291 191.052 115.564 186.453 114.734L175.929 112.838L184.344 106.367C183.562 104.968 182.898 103.214 182.542 100.962L181.784 96.2925L186.453 95.534C186.904 95.4629 198.305 93.2821 200.913 79.9843L201.292 78.0169L192.403 73.5606C192.119 73.4184 183.988 69.7206 175.621 77.4955L171.899 80.9562L168.723 76.9977C167.562 75.5518 163.39 71.2377 159.81 70.3606L159.431 70.2658L159.052 70.0999C159.052 70.0999 158.175 69.7443 156.8 69.4836C155.188 69.1518 152.486 68.6303 149.239 68.5355C145.825 68.4406 138.667 68.4406 138.596 68.4406H130.773L134.4 61.5192C134.756 60.8318 136.936 57.1103 143.052 54.4555C135.253 53.8866 125.44 55.3799 114.465 61.9458L107.733 65.9755C109.322 65.4066 111.052 65.0036 112.948 64.7903L117.476 64.2925L118.068 68.3932C118.258 68.9147 119.538 71.9725 124.397 75.8362C129.517 79.8895 139.662 85.6258 158.862 89.9162L160.759 90.3429L161.802 91.9547C163.295 94.254 165.12 98.6629 164.717 103.404C165.926 103.735 166.993 103.949 167.585 103.925L172.35 103.83L172.492 113.857L160.427 116.275L157.772 135.712C158.009 136.47 158.222 137.253 158.459 138.035L163.413 145.17C164.314 144.316 165.357 143.51 166.542 142.704L169.529 140.713L172.255 143.06C172.302 143.107 173.44 144.079 174.222 144.79L174.507 145.051C174.72 145.241 175.099 145.62 175.384 145.81H175.431ZM80.1423 107.196C80.0949 107.41 80.0475 107.812 80.1423 108.05C80.3082 108.381 80.9956 108.903 82.3705 109.33C82.9156 109.495 93.7245 112.767 101.997 116.132L100.053 113.478H103.443C100.812 109.448 97.9438 103.901 95.8579 96.7429L90.9275 96.0555L91.1408 91.7177C91.449 85.8866 93.9379 76.2629 100.67 70.1947L99.9823 70.5977L105.221 60.6658L100.267 61.7325C100.219 61.7325 94.0327 63.0836 86.8267 65.9992C82.6786 67.6821 79.0519 69.5073 75.9942 71.4747H89.126L85.9497 74.8406L98.726 70.0999L90.6193 82.2362C90.5719 82.2836 85.8312 89.6555 80.3082 106.77L80.166 107.149L80.1423 107.196ZM201.766 73.4895L202.074 74.1295V73.9873C202.003 73.8214 201.885 73.6555 201.766 73.5132V73.4895ZM170.572 65.5962C171.425 66.2599 172.184 66.9473 172.871 67.5873C174.767 66.2836 176.664 65.3355 178.465 64.6481C175.645 64.8614 172.445 65.3118 170.572 65.5725V65.5962ZM84.4564 46.9177C86.1156 47.1784 96.1186 48.8614 102.092 53.294L107.117 57.0392L107.852 55.6406C108.042 55.2614 110.981 49.8095 116.883 44.7843L98.3942 50.8051L96.5453 49.691C83.0816 41.6318 60.1601 28.3103 55.9171 26.8643L55.609 26.7695L55.3245 26.6273C54.566 26.248 52.2193 25.2288 50.4179 24.9206L50.1808 24.8732C50.1571 24.8732 46.6964 24.1384 43.5438 24.3043H43.4253C43.1882 24.3992 42.4534 24.7073 41.3156 25.7503L40.8653 26.1295C40.5334 26.4851 39.7749 27.5755 40.2253 29.8273V29.8984C40.2253 29.8984 40.3912 30.6095 40.7231 31.6999C40.889 31.2732 41.1023 30.8466 41.3156 30.4436C43.046 27.2673 45.2505 25.5132 47.8816 25.2762C50.2756 25.0629 52.1956 26.2243 53.286 27.4332C54.2342 28.4762 55.0638 30.1592 54.969 32.1503C58.003 31.1547 61.5823 31.0125 65.5171 32.5769L65.7779 32.6718L66.0386 32.814C68.6223 34.2125 70.4949 37.6495 68.883 41.2288L68.6223 41.8214C68.6697 41.8688 68.7171 41.8925 68.7645 41.9399C69.9734 43.0303 70.6371 44.571 70.6134 46.3014V46.4436C70.6134 46.5621 70.6134 46.6569 70.5897 46.7518C75.8045 46.4199 81.446 46.2777 84.4564 46.8703V46.9177ZM163.224 43.2436C164.67 44.0969 166.139 44.9977 167.633 45.9932L168.605 45.4718L163.556 42.9355L163.247 43.2199L163.224 43.2436ZM118.661 37.3177L122.809 40.6362C125.487 39.1192 128.522 37.8392 131.935 37.0569C131.935 37.0569 131.959 37.0569 131.982 37.0569C127.905 36.7962 123.449 36.8199 118.661 37.3414V37.3177ZM45.6297 31.1547C45.6297 31.2021 45.5823 31.2732 45.5823 31.368C45.606 31.2258 45.6297 31.1547 45.6297 31.1547Z" fill="white"/>
<path d="M129.47 211.042C176.965 211.042 215.467 172.773 215.467 125.567C215.467 78.3597 176.965 40.091 129.47 40.091C81.975 40.091 43.4728 78.3597 43.4728 125.567C43.4728 172.773 81.975 211.042 129.47 211.042Z" fill="white"/>
<path d="M215.87 94.3014L214.922 79.6288L194.205 77.4243V97.454L215.87 94.3014Z" fill="white"/>
<path d="M236.113 124.808C234.264 124.476 232.794 124.215 230.424 123.789C231.965 127.415 233.221 130.378 234.359 133.081C239.123 132.227 243.816 131.374 248.51 130.544C242.181 134.574 231.751 132.512 232.486 144.364H250.904C250.951 144.458 250.999 144.577 251.07 144.672C246.519 145.312 241.991 146.189 237.44 146.521C232.486 146.876 230.4 149.223 230.803 154.39C237.677 154.77 244.48 155.149 251.283 155.528C251.283 156.05 251.236 156.547 251.236 157.069H230.258C228.101 168.233 223.645 177.904 216.367 185.869C213.002 189.567 208.522 192.435 204.089 194.876C197.049 198.787 189.725 202.248 185.221 209.312C183.965 211.279 183.087 213.65 182.685 215.972C181.76 221.211 182.234 226.971 180.219 231.688C178.228 236.358 174.199 240.34 170.43 243.967C168.202 246.124 164.907 244.796 161.825 244.654C147.911 244.014 133.452 239.344 119.656 247.878C116.859 241.075 114.228 234.722 111.502 228.132C108.966 229.46 106.406 230.787 103.656 232.21C104.154 227.777 105.007 223.724 104.96 219.694C104.889 213.057 101.57 209.359 94.7675 206.965C85.5704 203.718 76.5867 205.732 66.2519 208.506C67.5556 204.263 68.5986 200.921 69.7127 197.365C55.9171 200.352 43.8993 197.27 33.7067 186.698C29.8193 182.669 24.2489 180.227 19.366 177.004C21.926 174.467 25.0549 171.362 28.563 167.901C21.8786 164.82 15.4075 161.833 7.56154 158.23C12.7289 156.452 16.3556 155.22 21.0726 153.608C15.123 152.565 10.1215 151.688 3.74524 150.574C6.42376 141.78 9.07857 133.128 11.7097 124.547C10.3349 125.258 8.84154 126.041 7.25339 126.847C5.97339 116.512 13.0134 101.484 27.7808 83.1843C23.7038 81.3117 19.7689 79.5103 14.3645 77.0451C22.4001 70.0999 29.8904 63.6051 37.4045 57.1103C29.203 48.9088 24.7467 37.7443 22.163 25.7029C19.8875 15.131 27.9704 5.38879 38.8504 4.86731C49.1852 4.36953 58.5956 7.71175 67.8164 11.5518C73.3867 13.8747 78.4119 17.4777 83.9349 19.9666C86.2341 21.0095 89.3156 21.2703 91.8045 20.7251C107.97 17.1932 124.042 16.4584 140.326 20.9384V17.8569C157.179 18.3547 170.88 26.011 183.253 35.2555C188.018 30.894 192.782 27.1014 196.883 22.6925C202.264 16.9088 210.75 17.9518 215.372 25.6792C219.899 33.2643 221.298 41.7266 221.772 50.2599C222.127 56.6836 221.061 63.1784 220.966 69.6495C220.942 71.451 222.009 73.3473 222.791 75.0777C224.853 79.7236 227.034 84.2984 229.523 89.6792H224.095C228.978 101.128 236.468 111.558 236.113 124.855V124.808ZM163.366 48.4821L167.301 51.5399L178.892 45.3532C172.61 42.1769 167.704 39.6406 162.726 37.2466L160.166 39.6406L154.24 37.2466C139.283 30.9414 123.994 31.0125 107.544 34.4732C110.365 36.7251 112.403 38.3606 114.987 40.4229L99.0341 45.614L93.7245 42.3666C81.8727 35.3266 69.8312 28.5473 57.5052 22.3606C53.3097 20.251 48.0475 19.3503 43.3541 19.5399C40.723 19.6584 37.0015 22.6451 35.9349 25.2288C33.6356 30.7992 39.206 42.3666 44.6341 45.4955C44.6341 45.4955 42.5245 34.094 47.3601 30.3725C48.6638 29.3532 50.5601 30.491 50.2756 32.1266C49.9201 34.094 48.5689 39.451 49.4934 42.2006C49.4934 42.2006 54.4949 33.7858 63.4075 36.7725C64.4741 37.128 65.0904 38.2421 64.6401 39.2851L61.7956 45.6614L64.9956 45.2584C65.8727 45.1399 66.323 46.2777 65.6119 46.7992C63.9764 47.9843 62.0564 49.7621 60.3023 52.4169C73.7423 51.5162 86.5186 48.7429 99.3186 57.0629C85.4045 60.8555 73.1497 64.9799 63.7867 76.168H78.1986C72.2252 83.1606 66.2993 88.731 62.0564 95.368C56.9363 103.356 52.5986 112.008 49.0667 120.826C46.7438 126.61 49.7541 132.014 55.3482 134.977C58.0267 136.399 61.0608 137.395 64.0475 137.94C73.126 139.599 82.3941 140.429 91.3541 142.562C103.064 145.359 114.655 148.251 126.815 147.682C127.834 147.635 129.09 147.919 129.92 148.488C134.59 151.735 139.165 155.101 144.498 158.989C120.818 149.199 97.0904 144.292 72.1778 147.374C78.8386 147.99 85.523 148.512 92.2312 148.844C102.282 149.341 105.055 151.807 106.951 162.378C104.059 160.719 101.381 158.918 98.4652 157.59C95.5734 156.263 92.4682 155.41 89.4341 154.367L88.6519 155.599C101.002 164.488 108.421 176.767 112.901 192.482C114.228 187.196 114.679 183.498 116.101 180.227C119.159 173.258 121.671 166.74 116.314 159.51C114.37 156.879 118.021 152.755 121.339 153.49C131.271 155.67 141.25 157.401 145.233 169.252C146.939 174.349 152.273 175.961 157.582 174.586C165.642 172.452 173.677 170.153 182.282 167.759C181.002 166.835 179.508 165.531 177.825 164.559C175.17 163.018 172.136 162.07 169.742 160.221C162.181 154.414 162.347 151.593 169.221 146.639C171.07 148.038 172.658 150.218 174.483 150.455C183.064 151.522 191.716 152.162 200.344 152.66C203.093 152.826 204.729 151.072 204.136 148.085C202.525 139.931 201.221 131.706 199.087 123.694C197.784 118.74 193.778 111.676 187.283 110.064C195.769 103.427 192.593 106.556 200.913 97.454C206.08 91.7888 209.28 93.5192 210.536 88.8258C210.536 88.8258 212.788 92.0969 213.286 92.5947C213.76 93.0925 214.447 93.3769 215.87 94.3014C212.172 80.1503 206.317 68.4406 195.674 59.6703C187.591 53.0095 175.099 53.4125 168.202 61.1636C177.778 60.1206 188.326 56.1621 194.56 69.294C185.647 66.0703 178.75 68.5592 172.445 73.9873C163.39 62.6332 150.969 63.7473 138.643 63.6762C145.493 53.9814 154.833 55.4036 164.527 56.7073C159.763 54.1236 154.927 51.7295 149.807 50.6155C136.889 47.7947 124.682 50.6155 112.071 57.8451C113.185 55.4036 113.517 54.2421 114.157 53.294C123.805 39.451 148.883 36.251 161.683 47.1073M45.7008 77.7562C34.323 86.6451 26.1452 96.3873 22.2104 109.993C26.0267 108.452 29.1082 107.22 32.1186 106.011C28.1838 117.626 24.3912 128.79 20.5749 140.073C31.526 143.297 38.9689 148.82 44.6104 157.116C40.6756 157.519 37.3808 157.851 34.086 158.183C34.0386 158.562 34.0149 158.965 33.9675 159.344C39.9645 162.615 45.9615 165.887 53.0726 169.75C48.3319 171.125 45.1319 172.05 41.6001 173.069C55.6089 183.996 71.8223 185.276 88.3675 185.798C87.4193 187.884 86.7082 189.424 86.6608 189.519C93.8193 192.482 100.575 195.279 106.714 197.815C102.756 182.313 82.0149 162.758 65.1141 160.245C67.4845 162.355 69.2386 163.801 70.8504 165.412C72.3675 166.93 73.7423 168.589 75.1882 170.177C57.1734 164.583 44.6341 153.252 38.0682 135.949C36.6697 132.251 36.4564 127.724 36.9067 123.741C38.3526 110.775 46.0089 101.057 54.7082 92.0732C56.8415 89.8688 59.5675 88.2095 62.0089 86.2895C61.5349 85.7917 61.0608 85.294 60.5867 84.7962C55.4904 85.8866 50.3941 86.9769 43.8045 88.3992C53.926 72.5414 66.3704 62.5621 84.3615 57.3947C67.0815 56.328 40.9601 65.7858 36.5512 73.8688C39.3008 75.0303 42.0504 76.1917 45.7008 77.7325V77.7562ZM121.339 188.358C117.713 200.21 117.855 211.801 123.402 223.226C124.634 222.23 125.487 221.543 126.27 220.927C127.431 224.079 128.474 226.924 129.73 230.361C139.805 224.885 149.784 226.592 159.905 228.298C162.679 228.772 166.045 227.824 168.676 226.544C173.061 224.435 177.517 220.808 175.597 215.688C174.625 213.081 169.576 211.255 166.068 210.45C153.932 207.7 142.388 210.307 131.271 215.901C124.587 207.771 123.165 198.1 121.363 188.381L121.339 188.358ZM195.769 45.5666C200.32 48.9088 204.397 51.8955 209.493 55.6406C209.944 49.051 210.418 43.3621 210.607 37.6732C210.607 37.5784 210.607 37.4599 210.607 37.3651C210.394 35.1132 207.834 33.9518 205.819 34.9947C203.805 36.0377 205.227 35.3503 204.99 35.5873C201.813 38.7162 198.898 42.1295 195.769 45.5666ZM176.024 193.715C173.653 200.21 169.742 201.513 165.333 201.11C161.92 200.802 159.17 198.218 158.649 194.852C151.704 199.356 144.948 203.789 138.193 208.221C148.693 203.836 159.621 203.575 170.809 206.562C171.923 206.87 174.293 205.827 174.72 204.832M188.919 170.295C192.119 172.429 195.247 174.491 198.4 176.601C206.791 171.86 206.293 163.303 207.882 156.215C201.742 160.767 195.413 165.484 188.919 170.319V170.295ZM213.736 102.835C211.911 110.444 211.295 118.124 202.216 118.692C203.567 121.442 204.658 123.694 206.009 126.467C208.569 124.666 211.058 123.433 212.836 121.561C214.637 119.664 216.818 117.128 216.865 114.829C216.936 111.534 215.253 108.192 213.736 102.858V102.835ZM154.264 180.867C149.412 180.678 144.703 177.557 140.136 171.504L154.264 180.867ZM187.97 190.088C190.199 186.912 192.427 183.735 195.2 179.753C191.645 178.758 189.63 178.189 187.473 177.572M210.56 104.304C206.033 107.172 202.619 109.306 198.59 111.842C207.052 114.07 208.948 112.98 210.56 104.304Z" fill="black"/>
<path d="M45.7009 77.7562C42.0742 76.2155 39.3009 75.054 36.5512 73.8925C40.9838 65.7858 67.0816 56.3518 84.3616 57.4184C66.3705 62.5858 53.9261 72.5651 43.8046 88.4229C50.3942 87.0006 55.4905 85.9103 60.5868 84.8199C61.0609 85.3177 61.535 85.8155 62.009 86.3132C59.5675 88.2332 56.8416 89.8688 54.7083 92.0969C46.009 101.081 38.3527 110.823 36.9068 123.765C36.4564 127.771 36.6698 132.275 38.0683 135.972C44.6342 153.276 57.1972 164.583 75.1883 170.201C73.7424 168.613 72.3675 166.953 70.8505 165.436C69.2387 163.848 67.4846 162.402 65.1142 160.269C82.015 162.781 102.756 182.337 106.714 197.839C100.575 195.303 93.8194 192.506 86.6609 189.543C86.7083 189.448 87.3957 187.907 88.3675 185.821C71.8224 185.276 55.609 183.996 41.6001 173.092C45.132 172.073 48.3557 171.125 53.0727 169.774C45.9379 165.887 39.9646 162.615 33.9675 159.368C34.015 158.989 34.0387 158.586 34.0861 158.207C37.3809 157.875 40.6757 157.543 44.6105 157.14C38.9453 148.82 31.5024 143.297 20.575 140.097C24.415 128.79 28.1838 117.65 32.1187 106.035C29.1083 107.244 26.0505 108.476 22.2105 110.017C26.1453 96.411 34.3231 86.6688 45.7009 77.7799V77.7562Z" fill="white"/>
<path d="M121.339 188.358C123.141 198.076 124.563 207.747 131.248 215.878C142.341 210.284 153.908 207.676 166.045 210.426C169.553 211.232 174.602 213.057 175.574 215.664C177.494 220.784 173.037 224.411 168.652 226.521C166.021 227.777 162.655 228.725 159.882 228.275C149.76 226.568 139.781 224.885 129.707 230.337C128.451 226.9 127.408 224.055 126.246 220.903C125.488 221.519 124.611 222.207 123.378 223.202C117.831 211.777 117.689 200.162 121.316 188.334L121.339 188.358Z" fill="white"/>
<path d="M195.769 45.5666C198.898 42.1295 201.79 38.7162 204.99 35.5873C205.227 35.3503 205.511 35.1606 205.819 34.9947C207.834 33.9517 210.394 35.1132 210.608 37.3651C210.821 39.6169 210.608 37.5784 210.608 37.6732C210.418 43.3621 209.92 49.0273 209.493 55.6406C204.397 51.8954 200.32 48.9088 195.769 45.5666Z" fill="#FDAB1C"/>
<path d="M174.696 204.808C174.27 205.804 171.923 206.847 170.785 206.538C159.597 203.575 148.67 203.836 138.169 208.198C144.925 203.765 151.68 199.356 158.625 194.805C158.791 195.919 159.099 197.934 159.408 199.901C166.068 201.655 172.611 202.983 176 193.691" fill="white"/>
<path d="M188.919 170.295C195.414 165.484 201.766 160.767 207.882 156.192C206.294 163.279 206.791 171.836 198.4 176.577C195.224 174.467 192.119 172.405 188.919 170.272V170.295Z" fill="white"/>
<path d="M213.736 102.835C215.253 108.168 216.936 111.51 216.865 114.805C216.818 117.104 214.637 119.641 212.836 121.537C211.058 123.433 208.569 124.666 206.009 126.444C204.658 123.67 203.568 121.442 202.216 118.669C211.295 118.1 211.911 110.42 213.736 102.811V102.835Z" fill="white"/>
<path d="M140.136 171.504C144.688 177.557 149.397 180.678 154.264 180.867C152.936 184.992 151.609 189.045 150.282 193.122" fill="white"/>
<path d="M187.449 177.572C189.606 178.189 191.621 178.758 195.176 179.753C192.403 183.735 190.175 186.912 187.947 190.088" fill="white"/>
<path d="M210.56 104.304C208.948 112.98 207.052 114.07 198.59 111.842C202.619 109.306 206.033 107.149 210.56 104.304Z" fill="white"/>
<path d="M139.52 150.384C120.865 140.5 101.31 133.887 80.0001 132.583C82.8208 132.583 85.6416 132.512 88.4623 132.583C91.3542 132.678 94.2697 132.796 97.1379 133.128C100.172 133.484 103.206 134.076 106.785 133.531C103.277 131.824 99.9112 129.359 96.2134 128.553C85.9734 126.349 75.5438 124.903 65.2327 123.054C58.5956 121.869 57.5764 120.375 60.1364 114.307C65.9201 100.607 73.9319 88.4703 86.6845 79.6051C85.8312 81.1458 84.7882 82.6154 84.1245 84.2273C81.2327 91.2199 78.1275 98.1414 75.7808 105.324C74.4534 109.401 76.3734 112.364 80.9956 113.81C89.1023 116.37 97.3275 118.906 104.96 122.58C116.172 127.984 126.933 134.313 137.837 140.358C139.141 141.092 140.113 142.444 141.013 143.818C120.96 130.615 99.9586 120.091 75.4016 119.001C79.7393 120.067 84.1008 121.015 88.3675 122.248C92.8949 123.552 97.4223 124.855 101.784 126.61C104.225 127.581 107.165 128.956 108.373 131.018C111.242 135.901 115.816 137.252 120.51 139.172C127.242 141.946 133.642 145.478 140.184 148.678C139.947 149.223 139.733 149.768 139.496 150.313L139.52 150.384Z" fill="black"/>
<path d="M167.728 109.993C163.911 110.752 160.119 111.51 156.208 112.293C155.639 116.488 155.093 120.541 154.525 124.595C151.656 119.333 151.301 111.866 143.621 112.221C138.027 112.506 132.528 115.113 127.265 116.607C127.858 115.469 128.901 113.478 129.778 111.795C125.108 106.058 120.581 100.488 116.053 94.9414C115.319 95.297 114.608 95.6525 113.873 96.0081C114.205 100.346 114.56 104.707 114.916 109.306C109.179 105.655 107.236 100.275 107.022 93.5192C103.846 93.0688 100.717 92.6421 95.8342 91.9547C101.049 87.4747 105.316 83.8007 110.08 79.6999C114.086 87.3799 121.055 89.134 127.953 90.7933C135.728 92.6658 142.341 96.1503 148.409 101.555C151.846 104.613 157.085 105.703 161.588 107.433C163.485 108.168 165.642 108.263 167.68 108.666C167.68 109.116 167.68 109.543 167.68 109.993H167.728ZM143.265 106.627C137.505 103.949 131.745 101.247 125.511 98.331C126.933 106.935 130.465 108.618 143.265 106.627Z" fill="black"/>
<path d="M129.517 126.941C142.815 120.85 153.316 139.03 153.316 139.03L154.169 140.097C154.169 140.097 150.4 126.728 147.627 121.347C146.655 119.498 142.365 117.65 140.516 118.313C136.273 119.878 132.433 122.604 128.498 125.021C127.645 125.543 126.839 126.159 126.128 126.847L124.824 128.103C126.459 127.984 128.048 127.581 129.517 126.918V126.941Z" fill="black"/>
<path d="M167.396 94.5384C168.96 88.8732 168.936 83.8718 162.039 81.8806C166.708 78.7518 170.904 79.2495 173.085 82.8525C175.574 86.9295 173.369 91.7888 167.396 94.5147V94.5384Z" fill="black"/>
<path d="M185.956 81.7621C184.699 86.9295 183.68 91.1488 182.708 95.1073C178.868 92.5236 177.588 88.328 179.864 84.1325C181.523 81.0984 183.704 79.9369 185.932 81.7621H185.956Z" fill="black"/>
<path d="M89.3394 99.8718C91.9231 105.015 93.9379 108.998 95.9527 112.98C95.8105 113.359 95.6683 113.715 95.5023 114.094C92.3735 112.458 88.1779 111.51 86.5424 108.927C85.4757 107.267 88.2016 103.19 89.3394 99.8955V99.8718Z" fill="black"/>
<path d="M143.265 106.627C130.489 108.642 126.933 106.935 125.511 98.331C131.745 101.247 137.505 103.925 143.265 106.627Z" fill="white"/>
<path d="M83.6505 51.5873C83.6505 51.5873 93.9142 53.1043 99.2949 57.1103C99.2949 57.1103 73.5764 62.5858 63.7631 76.2154H78.1749C78.1749 76.2154 64.4505 90.8169 60.2075 98.3547C60.2075 98.3547 67.0816 86.9295 86.6846 79.6525C86.6846 79.6525 81.6594 87.1903 75.8046 105.371C75.8046 105.371 73.1735 111.463 81.0194 113.857C81.0194 113.857 97.3038 118.764 104.984 122.627L108.492 123.765C110.128 124.287 111.858 124.287 113.493 123.765L109.416 118.195H113.493C113.493 118.195 103.988 110.278 99.6268 92.4525L95.8816 91.931C95.8816 91.931 96.9483 71.2614 113.47 69.4836C113.47 69.4836 116.978 85.4125 157.867 94.5147C157.867 94.5147 161.92 100.725 159.076 106.509C159.076 106.509 164.693 108.713 167.728 108.642V109.97L156.231 112.269L154.548 124.571L153.434 122.201C153.434 122.201 145.256 112.435 136.462 120.186C136.462 120.186 143.573 116.085 147.603 121.347C147.603 121.347 150.803 128.245 154.145 140.097L165.144 155.931C165.144 155.931 161.162 152.02 169.197 146.639C169.197 146.639 170.311 147.587 171.046 148.251C171.781 148.915 173.322 150.55 174.957 150.503C174.957 150.503 192.853 152.541 200.32 152.636C200.32 152.636 205.085 153.158 204.113 148.061C204.113 148.061 200.32 128.553 199.49 124.855C199.49 124.855 195.982 111.581 187.283 110.017C187.283 110.017 190.815 107.291 191.645 106.651C191.645 106.651 188.16 106.106 187.212 100.132C187.212 100.132 202.24 97.7147 205.559 80.814C205.559 80.814 213.381 86.4791 215.87 94.2303C215.87 94.2303 212.456 73.9162 195.674 59.5991C195.674 59.5991 191.005 54.8821 182.045 54.9295C173.085 54.9769 168.202 61.1162 168.202 61.1162C168.202 61.1162 175.905 59.8599 180.741 59.7414C185.576 59.6229 189.63 62.6569 189.63 62.6569C189.63 62.6569 192.616 65.1458 194.56 69.2466C194.56 69.2466 183.49 63.6762 172.445 73.9399C172.445 73.9399 166.945 67.1132 160.972 65.691C160.972 65.691 159.739 65.1695 157.772 64.7666C155.805 64.3636 152.936 63.8184 149.405 63.7236C145.873 63.6288 138.643 63.6288 138.643 63.6288C138.643 63.6288 143.408 54.5503 164.528 56.6599C164.528 56.6599 141.891 39.9488 112.095 57.7977C112.095 57.7977 129.778 24.2569 167.325 51.4925L178.916 45.3058L162.75 37.1992L160.19 39.5932C160.19 39.5932 138.43 26.9592 107.568 34.4258L115.011 40.3754L99.0579 45.5666C99.0579 45.5666 63.8342 24.4703 57.529 22.3132C57.529 22.3132 54.2105 20.654 51.2712 20.1799C51.2712 20.1799 47.2416 19.3029 43.3779 19.4925C43.3779 19.4925 41.3394 19.2792 38.1868 22.171C38.1868 22.171 34.4653 24.731 35.6505 30.6806C35.6505 30.6806 37.4283 40.494 44.6342 45.4243C44.6342 45.4243 43.1172 37.0569 45.5349 32.6243C47.9527 28.1917 49.8253 30.5384 49.8253 30.5384C49.8253 30.5384 50.5838 31.2495 50.1572 32.5295C49.7305 33.8095 48.6401 40.328 49.4698 42.1295C49.4698 42.1295 54.9216 33.3592 63.8105 36.9147C63.8105 36.9147 65.2801 37.7206 64.6164 39.2377L61.772 45.614L64.972 45.211C64.972 45.211 65.9438 45.0925 65.9201 46.1829C65.9201 46.1829 65.9201 46.491 65.5883 46.728C65.5883 46.728 62.4594 48.8614 60.2786 52.3458C60.2786 52.3458 78.4357 50.3784 83.6505 51.4688V51.5873Z" fill="#FDAB1C"/>
</svg>
